<svg id="Layer_1" data-name="Layer 1" xmlns="http://www.w3.org/2000/svg" viewBox="0 0 402.03 507.67"><defs><style>.cls-1{fill:#fff;}.cls-2{fill:#e9395f;}</style></defs><title>4 BIYLELTIIN TAILAN TSAGAAN</title><path class="cls-1" d="M367.73,236.81H414.6a17,17,0,0,1,17,17v61.26a0,0,0,0,1,0,0H350.73a0,0,0,0,1,0,0V253.81A17,17,0,0,1,367.73,236.81Z" transform="translate(246.24 -232.56) rotate(41.94)"/><rect class="cls-1" x="291.65" y="261.49" width="17.22" height="136.17" transform="translate(258.8 -158.06) rotate(41.94)"/><rect class="cls-1" x="316.19" y="360.94" width="17.22" height="69.74" transform="translate(309.35 -157.5) rotate(41.94)"/><path class="cls-1" d="M264.46,378l2.22,17.35c.53,1.41-15.68,32.4-14.61,33.4s29.26-17.65,30.78-17.22l20.73.18c9.22,2.6,9.3,15.35.19,18.32L246,449.16a9.69,9.69,0,0,1-12.49-11.22L246.1,379C248.1,369.55,261,369,264.46,378Z" transform="translate(-38.36 -41.81)"/><rect class="cls-2" x="359.89" y="337.73" width="17.22" height="18.74" transform="translate(287.99 -199.18) rotate(41.94)"/><path class="cls-1" d="M166.24,201.23a9,9,0,0,1-2.56,6.29l-40.8,41.65a9,9,0,0,1-5.72,2.66,8.93,8.93,0,0,0,5.07-2.59,9,9,0,0,0-.13-12.73l-6.13-6,34.86-35.58a9,9,0,0,1,15.41,6.31Z" transform="translate(-38.36 -41.81)"/><path class="cls-1" d="M122.23,249.24a8.93,8.93,0,0,1-5.07,2.59h0A9,9,0,0,1,110,236.57l6-6.07,6.13,6A9,9,0,0,1,122.23,249.24Z" transform="translate(-38.36 -41.81)"/><path class="cls-1" d="M117.11,251.84a9.5,9.5,0,0,1-1.31.09,9,9,0,0,1-6.29-2.56L92.89,233.09a9,9,0,0,1,12.6-12.86L116,230.5l-6,6.07a9,9,0,0,0,7.09,15.27Z" transform="translate(-38.36 -41.81)"/><rect class="cls-1" x="51.84" y="284.03" width="167.35" height="21.61" rx="8.87"/><rect class="cls-1" x="137.93" y="175.29" width="117.55" height="21.61" rx="8.87"/><rect class="cls-1" x="52.28" y="363.47" width="129.06" height="21.61" rx="8.87"/><rect class="cls-1" x="52.39" y="403.99" width="131.85" height="21.61" rx="8.87"/><rect class="cls-1" x="51.86" y="443.95" width="203.62" height="21.61" rx="8.87"/><rect class="cls-1" x="52.43" y="243.9" width="203.06" height="21.61" rx="8.87"/><rect class="cls-1" x="52.39" y="324.16" width="138.63" height="21.61" rx="8.87"/><path class="cls-1" d="M345.69,234.8V163.05a43,43,0,0,0-42.84-42.84H81.2a43,43,0,0,0-42.84,42.84V506.63A43,43,0,0,0,81.2,549.47H302.85a43,43,0,0,0,42.84-42.84v-68H329V507a26.1,26.1,0,0,1-26,26H81.09a26.1,26.1,0,0,1-26-26V163.9a26.1,26.1,0,0,1,26-26H303a26.1,26.1,0,0,1,26,26v70.9Z" transform="translate(-38.36 -41.81)"/><path class="cls-1" d="M218.17,65.46a24,24,0,0,0-47.95-.13c0,.15,0,.31,0,.47a24,24,0,0,0,15.62,22.48,22.18,22.18,0,0,0,4,1.1,24.35,24.35,0,0,0,4.38.4,25.12,25.12,0,0,0,3.81-.29,23.66,23.66,0,0,0,5-1.41A24,24,0,0,0,218.19,65.8,1.88,1.88,0,0,0,218.17,65.46Zm-23.69-15.6a9.21,9.21,0,1,1-9.2,9.22A9.22,9.22,0,0,1,194.48,49.86Z" transform="translate(-38.36 -41.81)"/><path class="cls-1" d="M170.05,65.21a31.12,31.12,0,0,1-3,6.72c-2.09,3.48-3,8.34-14.14,10.66s-16.22,6.49-17.38,10.2-1.62,19-5.8,26.42a40.15,40.15,0,0,0-4.86,13.91l68.83.23-4.86-55.16Z" transform="translate(-38.36 -41.81)"/><path class="cls-1" d="M218.44,65.29A31.14,31.14,0,0,0,221.55,72c2.16,3.47,3.12,8.34,14.62,10.66s16.77,6.49,18,10.2,1.68,19,6,26.42a39.1,39.1,0,0,1,5,13.91l-71.15.23,5-55.16Z" transform="translate(-38.36 -41.81)"/><ellipse class="cls-1" cx="156.13" cy="62.28" rx="11.53" ry="23.93"/><path class="cls-1" d="M72.87,87.83H241.29A22.17,22.17,0,0,1,263.46,110v6.58a0,0,0,0,1,0,0H50.7a0,0,0,0,1,0,0V110A22.17,22.17,0,0,1,72.87,87.83Z"/></svg>