<svg id="Layer_1" data-name="Layer 1" xmlns="http://www.w3.org/2000/svg" viewBox="0 0 437.95 475.95"><defs><style>.cls-1{fill:#2684fe;}</style></defs><title>3 BODIT TSAG TSENHER</title><path class="cls-1" d="M400,193.79V172a51.32,51.32,0,0,0-51.17-51.17H158A51.32,51.32,0,0,0,106.86,172V484.45A51.32,51.32,0,0,0,158,535.62H348.86A51.32,51.32,0,0,0,400,484.45v-3.19l-15.69.05v3.92a34,34,0,0,1-33.87,33.87H157.66a34,34,0,0,1-33.87-33.87V171.3a34,34,0,0,1,33.87-33.87H350.47a34,34,0,0,1,33.87,33.87v22.49Z" transform="translate(-106.86 -59.66)"/><path class="cls-1" d="M269.64,78.49a19.08,19.08,0,0,0-38.16-.1c0,.12,0,.24,0,.37A19.1,19.1,0,0,0,243.9,96.65a18.81,18.81,0,0,0,3.17.88,19.28,19.28,0,0,0,6.53.08,18.74,18.74,0,0,0,4-1.11,19.09,19.09,0,0,0,12-17.74A2.35,2.35,0,0,0,269.64,78.49ZM250.79,66.07a7.34,7.34,0,1,1-7.33,7.34A7.34,7.34,0,0,1,250.79,66.07Z" transform="translate(-106.86 -59.66)"/><path class="cls-1" d="M231.34,78.29a25.13,25.13,0,0,1-2.4,5.35c-1.66,2.77-2.39,6.64-11.25,8.49s-12.91,5.16-13.83,8.11-1.3,15.13-4.62,21a32,32,0,0,0-3.87,11.07l54.79.19-3.88-43.91Z" transform="translate(-106.86 -59.66)"/><path class="cls-1" d="M269.85,78.35a25,25,0,0,0,2.48,5.35c1.72,2.77,2.48,6.64,11.64,8.49s13.34,5.16,14.3,8.11,1.33,15.13,4.76,21a31.21,31.21,0,0,1,4,11.07l-56.64.19,4-43.91Z" transform="translate(-106.86 -59.66)"/><ellipse class="cls-1" cx="143.93" cy="49.57" rx="9.18" ry="19.05"/><path class="cls-1" d="M82.19,69.91h125a22.17,22.17,0,0,1,22.17,22.17v.71a0,0,0,0,1,0,0H60a0,0,0,0,1,0,0v-.71A22.17,22.17,0,0,1,82.19,69.91Z"/><path class="cls-1" d="M392.36,186.07A152.46,152.46,0,1,0,544.81,338.52,152.45,152.45,0,0,0,392.36,186.07Zm0,288.66a136.21,136.21,0,1,1,136.2-136.21A136.21,136.21,0,0,1,392.36,474.73Z" transform="translate(-106.86 -59.66)"/><rect class="cls-1" x="279.12" y="174.64" width="16.07" height="107.98"/><rect class="cls-1" x="405.82" y="328.01" width="16.07" height="64.21" transform="translate(855.15 278.51) rotate(136.68)"/></svg>