<?xml version="1.0" encoding="utf-8"?>
<!-- Generator: Adobe Illustrator 23.0.3, SVG Export Plug-In . SVG Version: 6.00 Build 0)  -->
<svg version="1.1" id="Layer_1" xmlns="http://www.w3.org/2000/svg" xmlns:xlink="http://www.w3.org/1999/xlink" x="0px" y="0px"
	 viewBox="0 0 141.73 141.73" style="enable-background:new 0 0 141.73 141.73;" xml:space="preserve">
<style type="text/css">
	.st0{fill:#2684FE;}
</style>
<g>
	<g>
		<g>
			<g>
				<polygon class="st0" points="119.82,35.43 88.82,35.43 88.82,4.43 97.68,4.43 97.68,26.57 119.82,26.57 				"/>
			</g>
			<g>
				<path class="st0" d="M124.25,141.73H17.95V0h77.13l29.17,29.17V141.73z M26.81,132.87h88.58V32.84L91.41,8.86h-64.6V132.87z"/>
			</g>
		</g>
	</g>
</g>
<path class="st0" d="M64.46,57.58c6.11,0,11.07,4.97,11.07,11.07s-4.97,11.07-11.07,11.07s-11.07-4.97-11.07-11.07
	S58.35,57.58,64.46,57.58L64.46,57.58z M64.46,48.72c-11.01,0-19.93,8.92-19.93,19.93s8.92,19.93,19.93,19.93
	s19.93-8.92,19.93-19.93S75.46,48.72,64.46,48.72L64.46,48.72z"/>
<g>
	
		<rect x="82.17" y="75.14" transform="matrix(0.7071 -0.7071 0.7071 0.7071 -38.8381 87.831)" class="st0" width="8.86" height="31.32"/>
</g>
</svg>
