<svg id="Layer_1" data-name="Layer 1" xmlns="http://www.w3.org/2000/svg" viewBox="0 0 507.93 402.78"><defs><style>.cls-1{fill:#fff;}</style></defs><title>BODIT TSAGIIN AUDITIIN HUVAARI TSAGAAN</title><path class="cls-1" d="M285.42,189.43a45.24,45.24,0,0,1-11,13.72,107.29,107.29,0,1,1-57.72.2,45.24,45.24,0,0,1-11.13-13.64,123.65,123.65,0,1,0,79.89-.28Z" transform="translate(-122.23 -108.45)"/><path class="cls-1" d="M245.88,213.69a92.94,92.94,0,1,0,92.94,92.94A92.94,92.94,0,0,0,245.88,213.69Zm0,170.62a77.69,77.69,0,1,1,77.69-77.68A77.68,77.68,0,0,1,245.88,384.31Z" transform="translate(-122.23 -108.45)"/><rect class="cls-1" x="115.54" y="153.87" width="15.26" height="54.78" rx="7.63"/><rect class="cls-1" x="248.74" y="290.87" width="15.26" height="37.2" rx="7.63" transform="translate(443.6 -55.35) rotate(90)"/><rect class="cls-1" x="115.54" y="110.99" width="15.26" height="25.19" rx="7.63"/><rect class="cls-1" x="115.54" y="259.73" width="15.26" height="25.19" rx="7.63"/><rect class="cls-1" x="163.4" y="296.53" width="15.26" height="25.19" rx="7.63" transform="translate(-260.32 371.7) rotate(-90)"/><rect class="cls-1" x="312.14" y="296.53" width="15.26" height="25.19" rx="7.63" transform="translate(-111.58 520.44) rotate(-90)"/><rect class="cls-1" x="184.12" y="242.81" width="15.26" height="25.19" rx="7.63" transform="translate(-246.67 101.94) rotate(-45)"/><rect class="cls-1" x="289.3" y="347.98" width="15.26" height="25.19" rx="7.63" transform="translate(-290.23 207.12) rotate(-45)"/><rect class="cls-1" x="187.66" y="348.69" width="15.26" height="25.19" rx="7.63" transform="translate(-44.32 646.4) rotate(-135)"/><rect class="cls-1" x="292.84" y="243.52" width="15.26" height="25.19" rx="7.63" transform="translate(209.6 541.22) rotate(-135)"/><path class="cls-1" d="M245.45,123.45a45.13,45.13,0,0,0-39.87,66.28,118.78,118.78,0,0,1,12.76-3.64,32.27,32.27,0,1,1,54.35-.2,121.18,121.18,0,0,1,12.78,3.56,45.14,45.14,0,0,0-40-66Z" transform="translate(-122.23 -108.45)"/><path class="cls-1" d="M285.42,189.43a45.24,45.24,0,0,1-11,13.72,106.32,106.32,0,0,0-20.23-3.52,32.33,32.33,0,0,0,18.49-13.76A121.18,121.18,0,0,1,285.42,189.43Z" transform="translate(-122.23 -108.45)"/><path class="cls-1" d="M236.89,199.69a107.12,107.12,0,0,0-20.23,3.66,45.24,45.24,0,0,1-11.13-13.64,118.78,118.78,0,0,1,12.76-3.64A32.32,32.32,0,0,0,236.89,199.69Z" transform="translate(-122.23 -108.45)"/><circle class="cls-1" cx="123.41" cy="58.61" r="13.23"/><path class="cls-1" d="M419.05,116v49.45a8.41,8.41,0,0,0-15.13,0V116a7.57,7.57,0,0,1,15.13,0Z" transform="translate(-122.23 -108.45)"/><path class="cls-1" d="M419.05,172.83V306.15a8.41,8.41,0,0,0-15.13,0V172.83a8.41,8.41,0,0,0,15.13,0Z" transform="translate(-122.23 -108.45)"/><path class="cls-1" d="M419.05,313.52V446.85a8.41,8.41,0,0,0-15.13,0V313.52a8.41,8.41,0,0,0,15.13,0Z" transform="translate(-122.23 -108.45)"/><path class="cls-1" d="M419.05,454.22v49.45a7.57,7.57,0,0,1-15.13,0V454.22a8.41,8.41,0,0,0,15.13,0Z" transform="translate(-122.23 -108.45)"/><path class="cls-1" d="M419.05,147.33a23.09,23.09,0,1,0,15.52,21.82A23.07,23.07,0,0,0,419.05,147.33Zm0,25.5a8.41,8.41,0,0,1-15.13,0,8.41,8.41,0,0,1,0-7.37,8.41,8.41,0,0,1,15.13,0,8.41,8.41,0,0,1,0,7.37Z" transform="translate(-122.23 -108.45)"/><path class="cls-1" d="M419.05,288a23.09,23.09,0,1,0,15.52,21.82A23.07,23.07,0,0,0,419.05,288Zm0,25.5a8.41,8.41,0,0,1-15.13,0,8.41,8.41,0,0,1,0-7.37,8.41,8.41,0,0,1,15.13,0,8.41,8.41,0,0,1,0,7.37Z" transform="translate(-122.23 -108.45)"/><path class="cls-1" d="M419.05,428.72a23.09,23.09,0,1,0,15.52,21.82A23.07,23.07,0,0,0,419.05,428.72Zm0,25.5a8.41,8.41,0,0,1-15.13,0,8.41,8.41,0,0,1,0-7.37,8.41,8.41,0,0,1,15.13,0,8.41,8.41,0,0,1,0,7.37Z" transform="translate(-122.23 -108.45)"/><path class="cls-1" d="M614.83,110H507.6a15.38,15.38,0,0,0-15.33,15.33v29.22a3.33,3.33,0,0,0,4.88,2.94l3.48-1.83,4.81-2.52a3.34,3.34,0,0,0,1.78-3v-22a3.33,3.33,0,0,1,3.33-3.33H611.89a3.33,3.33,0,0,1,3.33,3.33v86.08a3.33,3.33,0,0,1-3.33,3.33H510.55a3.33,3.33,0,0,1-3.33-3.33v-21a3.33,3.33,0,0,0-1.78-2.94l-4.81-2.53L497.15,186a3.33,3.33,0,0,0-4.88,2.95v28.21a15.37,15.37,0,0,0,15.33,15.33H614.83a15.37,15.37,0,0,0,15.33-15.33V125.34A15.38,15.38,0,0,0,614.83,110Z" transform="translate(-122.23 -108.45)"/><path class="cls-1" d="M492.27,160.06,470,171.75l22.25,11.69,8.36,4.39v16.59l-8.36-4.83L460,181a11.25,11.25,0,0,1,0-19.48l32.23-18.6,8.36-4.83v17.59Z" transform="translate(-122.23 -108.45)"/><path class="cls-1" d="M614.83,249.45H507.6a15.38,15.38,0,0,0-15.33,15.33V294a3.33,3.33,0,0,0,4.88,2.94l3.48-1.83,4.81-2.52a3.34,3.34,0,0,0,1.78-2.95v-22a3.33,3.33,0,0,1,3.33-3.33H611.89a3.33,3.33,0,0,1,3.33,3.33v86.08a3.33,3.33,0,0,1-3.33,3.33H510.55a3.33,3.33,0,0,1-3.33-3.33v-21a3.33,3.33,0,0,0-1.78-2.94l-4.81-2.53-3.48-1.83a3.33,3.33,0,0,0-4.88,2.95V356.6a15.37,15.37,0,0,0,15.33,15.33H614.83a15.37,15.37,0,0,0,15.33-15.33V264.78A15.38,15.38,0,0,0,614.83,249.45Z" transform="translate(-122.23 -108.45)"/><path class="cls-1" d="M492.27,299.5,470,311.19l22.25,11.69,8.36,4.39v16.59L492.27,339,460,320.43A11.25,11.25,0,0,1,460,301l32.23-18.6,8.36-4.83v17.59Z" transform="translate(-122.23 -108.45)"/><path class="cls-1" d="M614.83,387.18H507.6a15.38,15.38,0,0,0-15.33,15.33v29.22a3.33,3.33,0,0,0,4.88,2.94l3.48-1.83,4.81-2.52a3.34,3.34,0,0,0,1.78-2.95v-22a3.33,3.33,0,0,1,3.33-3.33H611.89a3.33,3.33,0,0,1,3.33,3.33v86.08a3.33,3.33,0,0,1-3.33,3.33H510.55a3.33,3.33,0,0,1-3.33-3.33v-21a3.33,3.33,0,0,0-1.78-2.94L500.63,465l-3.48-1.83a3.33,3.33,0,0,0-4.88,2.95v28.21a15.37,15.37,0,0,0,15.33,15.33H614.83a15.37,15.37,0,0,0,15.33-15.33V402.51A15.38,15.38,0,0,0,614.83,387.18Z" transform="translate(-122.23 -108.45)"/><path class="cls-1" d="M492.27,437.23,470,448.92l22.25,11.69,8.36,4.39v16.59l-8.36-4.83L460,458.16a11.25,11.25,0,0,1,0-19.48l32.23-18.6,8.36-4.83v17.59Z" transform="translate(-122.23 -108.45)"/><rect class="cls-1" x="423.06" y="39.7" width="54" height="15.46" rx="7.73"/><rect class="cls-1" x="400.58" y="71.43" width="76.8" height="15.46" rx="7.73"/><rect class="cls-1" x="423.06" y="178.65" width="54" height="15.46" rx="7.73"/><rect class="cls-1" x="400.58" y="210.38" width="76.8" height="15.46" rx="7.73"/><rect class="cls-1" x="423.06" y="317.14" width="54" height="15.46" rx="7.73"/><rect class="cls-1" x="400.58" y="348.87" width="76.8" height="15.46" rx="7.73"/></svg>