<?xml version="1.0" encoding="utf-8"?>
<!-- Generator: Adobe Illustrator 24.3.0, SVG Export Plug-In . SVG Version: 6.00 Build 0)  -->
<svg version="1.1" id="Layer_1" xmlns="http://www.w3.org/2000/svg" xmlns:xlink="http://www.w3.org/1999/xlink" x="0px" y="0px"
	 viewBox="0 0 566.9 566.9" style="enable-background:new 0 0 566.9 566.9;" xml:space="preserve">
<style type="text/css">
	.st0{fill:#2684FE;}
	.st1{fill:#FFFFFF;}
</style>
<path class="st0" d="M534.1,566.9H32.8C14.8,566.9,0,552.2,0,534.1V32.8C0,14.8,14.8,0,32.8,0h501.2c18.1,0,32.8,14.8,32.8,32.8
	v501.2C566.9,552.2,552.2,566.9,534.1,566.9z"/>
<image style="display:none;overflow:visible;" width="787" height="787" xlink:href="New folder/DESKTOP/SANHUUGIIN AUDIT/ICON/08 (2).png"  transform="matrix(0.9288 0 0 0.9288 -84.035 -84.035)">
</image>
<path class="st1" d="M53.2,346.4c22.6-22.8,45.2-45.6,67.8-68.3c20.9,20.9,41.7,41.7,62.6,62.6C269.2,255.1,354.8,169.6,440.3,84
	c23,22.8,45.9,45.6,68.9,68.3C401,260.7,292.9,369,184.7,477.4C140.9,433.7,97,390.1,53.2,346.4z"/>
</svg>
