<svg id="Layer_1" data-name="Layer 1" xmlns="http://www.w3.org/2000/svg" viewBox="0 0 398.45 474.41"><defs><style>.cls-1{fill:#2684fe;}</style></defs><title>ERSDELTEI ASUUDLIIN BURTGEL TSENHER</title><path class="cls-1" d="M352.57,59.84H130.92a43,43,0,0,0-42.84,42.84V446.26a43,43,0,0,0,42.84,42.84H325.3a76.76,76.76,0,0,1-9.52-16.44h-185a26.1,26.1,0,0,1-26-26V103.53a26.1,26.1,0,0,1,26-26H352.68a26.1,26.1,0,0,1,26,26v262.6a75.61,75.61,0,0,1,8-.42,78.18,78.18,0,0,1,8.7.49V102.68A43,43,0,0,0,352.57,59.84Z" transform="translate(-79.81 -59.84)"/><rect class="cls-1" x="87.73" y="223.12" width="17.02" height="32.62" transform="translate(255.86 83.36) rotate(90)"/><rect class="cls-1" x="87.62" y="268.51" width="17.02" height="32.62" transform="translate(301.15 128.85) rotate(90)"/><rect class="cls-1" x="87.61" y="313.87" width="17.02" height="32.62" transform="translate(346.5 174.22) rotate(90)"/><rect class="cls-1" x="87.61" y="359.37" width="17.02" height="32.52" transform="translate(391.94 219.67) rotate(90)"/><rect class="cls-1" x="87.61" y="404.5" width="17.02" height="32.52" transform="translate(437.07 264.8) rotate(90)"/><rect class="cls-1" x="87.73" y="177.73" width="17.02" height="32.62" transform="translate(210.47 37.97) rotate(90)"/><rect class="cls-1" x="87.73" y="132.34" width="17.02" height="32.62" transform="translate(165.08 -7.43) rotate(90)"/><rect class="cls-1" x="152.28" y="129.45" width="76.3" height="18" rx="9" transform="translate(-121.54 117.74) rotate(-45.58)"/><rect class="cls-1" x="140.45" y="142.2" width="41.26" height="18" rx="9" transform="translate(72.03 -129.37) rotate(44.42)"/><rect class="cls-1" x="63.97" y="182.4" width="203.65" height="21.61" rx="8.87"/><rect class="cls-1" x="150.07" y="73.66" width="117.55" height="21.61" rx="8.87"/><rect class="cls-1" x="64.41" y="261.83" width="203.21" height="21.61" rx="8.87"/><rect class="cls-1" x="64.52" y="302.35" width="153.68" height="21.61" rx="8.87"/><rect class="cls-1" x="64" y="342.31" width="135.42" height="21.61" rx="8.87"/><rect class="cls-1" x="64.56" y="142.27" width="203.06" height="21.61" rx="8.87"/><rect class="cls-1" x="64.52" y="222.53" width="203.1" height="21.61" rx="8.87"/><path class="cls-1" d="M395.7,351.56l-.29,0q-4.31-.42-8.7-.42c-2.62,0-5.22.11-7.78.33l-.23,0a91.65,91.65,0,0,0-81.5,110.61,89.47,89.47,0,0,0,3,10.58c.77,2.26,1.64,4.47,2.59,6.64A91.57,91.57,0,1,0,395.7,351.56Zm-9,168.1a77,77,0,0,1-8-153.53,75.61,75.61,0,0,1,8-.42,78.18,78.18,0,0,1,8.7.49,77,77,0,0,1-8.7,153.46Z" transform="translate(-79.81 -59.84)"/><path class="cls-1" d="M411.51,393.94h0a21.55,21.55,0,0,1,21.55,21.55V418a11.6,11.6,0,0,1-11.6,11.6H401.56A11.6,11.6,0,0,1,390,418v-2.52a21.55,21.55,0,0,1,21.55-21.55Z" transform="translate(324.55 -230.17) rotate(44.28)"/><path class="cls-1" d="M380.18,413.11l-38.05,39-3,26.4a7.13,7.13,0,0,0,8.19,7.85l25.57-4L411,443.2l-11.64-7a9.32,9.32,0,0,1-1.69-1.31l-9.46-9.37A8.79,8.79,0,0,1,387,424Z" transform="translate(-79.81 -59.84)"/></svg>