<?xml version="1.0" encoding="utf-8"?>
<!-- Generator: Adobe Illustrator 23.0.3, SVG Export Plug-In . SVG Version: 6.00 Build 0)  -->
<svg version="1.1" id="Layer_1" xmlns="http://www.w3.org/2000/svg" xmlns:xlink="http://www.w3.org/1999/xlink" x="0px" y="0px"
	 viewBox="0 0 292.8 302.1" style="enable-background:new 0 0 292.8 302.1;" xml:space="preserve">
<style type="text/css">
	.st0{fill:#39900F;}
	.st1{fill:#FFFFFF;}
</style>
<path class="st0" d="M262,291.5H31.1c-13.7,0-24.8-11.1-24.8-24.8V35.8C6.3,22.1,17.4,11,31.1,11H262c13.7,0,24.8,11.1,24.8,24.8
	v230.9C286.8,280.4,275.7,291.5,262,291.5z"/>
<path class="st1" d="M33.1,177.1c11.7-11.3,23.5-22.7,35.2-34c10.6,10.6,21.1,21.1,31.7,31.7c43.2-43.3,86.3-86.6,129.5-129.9
	c11.5,11.5,23,23,34.4,34.4c-54.3,54.5-108.5,109-162.8,163.6C78.5,220.9,55.8,199,33.1,177.1z"/>
</svg>
