<svg id="Layer_1" data-name="Layer 1" xmlns="http://www.w3.org/2000/svg" viewBox="0 0 315.6 509.26"><defs><style>.cls-1{fill:#2684fe;}</style></defs><title>1 HUVAARI TSENHER</title><path class="cls-1" d="M345.16,122.89H123.51a43,43,0,0,0-42.84,42.84V509.31a43,43,0,0,0,42.84,42.84H345.16A43,43,0,0,0,388,509.31V165.73A43,43,0,0,0,345.16,122.89Zm26.13,386.8a26.1,26.1,0,0,1-26,26H123.4a26.1,26.1,0,0,1-26-26V166.58a26.1,26.1,0,0,1,26-26H345.27a26.1,26.1,0,0,1,26,26Z" transform="translate(-72.4 -42.89)"/><path class="cls-1" d="M260.93,66.54a24,24,0,0,0-48-.13c0,.16,0,.32,0,.47A24,24,0,0,0,228.6,89.37a22.69,22.69,0,0,0,4,1.1,24.35,24.35,0,0,0,4.38.4,23.8,23.8,0,0,0,3.81-.3,23.07,23.07,0,0,0,5-1.4A24,24,0,0,0,261,66.88,2,2,0,0,0,260.93,66.54ZM237.24,51a9.21,9.21,0,1,1-9.2,9.22A9.22,9.22,0,0,1,237.24,51Z" transform="translate(-72.4 -42.89)"/><path class="cls-1" d="M212.81,66.3a31.12,31.12,0,0,1-3,6.72c-2.09,3.47-3,8.34-14.14,10.66s-16.22,6.49-17.38,10.2-1.62,19-5.8,26.42a40.07,40.07,0,0,0-4.86,13.9l68.83.24-4.86-55.16Z" transform="translate(-72.4 -42.89)"/><path class="cls-1" d="M261.2,66.37a30.91,30.91,0,0,0,3.11,6.72c2.16,3.48,3.12,8.35,14.62,10.67s16.77,6.49,18,10.19,1.68,19,6,26.43a39.18,39.18,0,0,1,5,13.9l-71.16.23,5-55.16Z" transform="translate(-72.4 -42.89)"/><ellipse class="cls-1" cx="164.84" cy="62.28" rx="11.53" ry="23.93"/><path class="cls-1" d="M81.59,87.83H250A22.17,22.17,0,0,1,272.18,110v6.58a0,0,0,0,1,0,0H59.41a0,0,0,0,1,0,0V110A22.17,22.17,0,0,1,81.59,87.83Z"/><rect class="cls-1" x="80.32" y="286.18" width="17.02" height="32.62" transform="translate(318.91 170.76) rotate(90)"/><rect class="cls-1" x="80.22" y="331.57" width="17.02" height="32.62" transform="translate(364.2 216.26) rotate(90)"/><rect class="cls-1" x="80.2" y="376.93" width="17.02" height="32.62" transform="translate(409.55 261.63) rotate(90)"/><rect class="cls-1" x="80.2" y="422.42" width="17.02" height="32.52" transform="translate(454.99 307.07) rotate(90)"/><rect class="cls-1" x="80.2" y="467.55" width="17.02" height="32.52" transform="translate(500.13 352.2) rotate(90)"/><rect class="cls-1" x="80.32" y="240.78" width="17.02" height="32.62" transform="translate(273.52 125.37) rotate(90)"/><rect class="cls-1" x="80.32" y="195.39" width="17.02" height="32.62" transform="translate(228.13 79.98) rotate(90)"/><rect class="cls-1" x="143.13" y="207.86" width="76.3" height="18" rx="9" transform="translate(-172.89 151.68) rotate(-45.58)"/><rect class="cls-1" x="131.3" y="220.61" width="41.26" height="18" rx="9" transform="translate(131.7 -83.62) rotate(44.42)"/><rect class="cls-1" x="62.23" y="277.76" width="203.65" height="21.61" rx="8.87"/><rect class="cls-1" x="148.32" y="169.02" width="117.55" height="21.61" rx="8.87"/><rect class="cls-1" x="62.66" y="357.19" width="203.21" height="21.61" rx="8.87"/><rect class="cls-1" x="62.77" y="397.71" width="203.1" height="21.61" rx="8.87"/><rect class="cls-1" x="62.25" y="437.67" width="203.62" height="21.61" rx="8.87"/><rect class="cls-1" x="62.81" y="237.62" width="203.06" height="21.61" rx="8.87"/><rect class="cls-1" x="62.77" y="317.89" width="203.1" height="21.61" rx="8.87"/></svg>