<svg id="Layer_1" data-name="Layer 1" xmlns="http://www.w3.org/2000/svg" viewBox="0 0 145.38 33.88"><defs><style>.cls-1{fill:#142c5f;}.cls-1,.cls-2,.cls-3,.cls-4{fill-rule:evenodd;}.cls-2{fill:#fdce07;}.cls-3{fill:#df1e26;}.cls-4,.cls-5{fill:#00377b;}.cls-5{font-size:9px;font-family:Roboto-Bold, Roboto;font-weight:700;}.cls-6{letter-spacing:-0.01em;}.cls-7{letter-spacing:-0.04em;}.cls-8{letter-spacing:-0.01em;}.cls-9{letter-spacing:0em;}.cls-10{letter-spacing:-0.03em;}.cls-11{letter-spacing:0.01em;}.cls-12{letter-spacing:0em;}.cls-13{letter-spacing:-0.1em;}</style></defs><title>logo_last</title><path class="cls-1" d="M25.68,9A16.94,16.94,0,1,1,8.74,25.89,16.94,16.94,0,0,1,25.68,9Z" transform="translate(-8.74 -8.95)"/><path class="cls-2" d="M41.44,28.07,40.86,28l0-.29.59.06c0-.2,0-.41.06-.62l.29,0c0,.22,0,.43-.06.64l0,.31,0,.24,0,.24-.09.47L41.29,29l.08-.46,0-.23,0-.24Zm-1.94.86-.1.41a1.46,1.46,0,0,1,0,.2l-.06.2-.07.27-.09.26-.08.27.27.09.09-.27a2.14,2.14,0,0,0,.09-.27l.56.17.08-.28-.56-.16.06-.2c0-.07,0-.14,0-.21l.09-.42,1.73.38c0-.1.05-.21.06-.31l-2-.4a2.56,2.56,0,0,1,0,.27Zm-.6,4.73.5.3-.11.2-.13.2-.25.39-1.47-1-.16.23-.24.34-.25.33-.18.22c-.11.14-.24.28-.36.42l.22.19c.12-.14.25-.28.37-.43l.46.38.18-.23L37,34.85l.26-.34.24-.34,1.45,1c.06-.09.13-.17.18-.26l.26-.41.13-.2.12-.21.16-.27c.11-.18.2-.38.3-.56l-.27-.14a5.77,5.77,0,0,1-.29.55l-.51-.28-.15.26Zm-1.77,2.43.44.39c-.1.12-.21.24-.32.35l-.32.34-1.25-1.25-.2.19-.3.29-.32.27-.21.18-.44.35.18.23.45-.35.37.46.23-.2-.39-.44.33-.28.3-.3,1.23,1.28.23-.22.33-.35c.11-.11.22-.23.32-.35l.21-.24.21-.24L38.4,36l-.23-.19L38,36l-.21.24-.44-.39-.2.23Zm-2.2,2,.35.47c-.12.1-.25.18-.38.27s-.25.19-.38.27l-1-1.47-.24.15-.35.23-.36.2-.24.14-.5.25.13.27.5-.26.28.52L33,39l-.29-.52.37-.21.36-.23.95,1.49.27-.17c.14-.09.26-.19.39-.28s.27-.18.39-.28l.25-.19.25-.2.24-.21L36,38l-.24.2-.24.19L35.16,38l-.23.19Zm-2.3,1.44.27.52c.19-.09.37-.19.55-.29l.15.25-.57.3-.28.15-.43.2-.44.19-.3.12-.64-1.65-.2.08-.2.07-.4.14.18.56-.28.09-.17-.56-.55.15-.07-.28.53-.16.27-.08.39-.13.2-.08.19-.07.26-.11.68,1.64.43-.19.42-.2-.25-.53.26-.13ZM26.88,41.2l-.3,0,0,.59h-.93V40.07H25.4l-.42,0c-.14,0-.28,0-.41,0l-.28,0c-.19,0-.37,0-.55-.06l0,.29.56.07-.06.58.3,0,0-.59.43,0h.42l0,1.77h.32l.47,0h.48l.32,0,.63-.06,0-.29-.63.06,0-.59ZM18,38.49l.46-.76a14.65,14.65,0,0,0,1.93,1l.26.1-.33.83-.1.27-.22.55.29.11.2-.55.56.19.09-.28-.55-.19.31-.83a13.81,13.81,0,0,0,2.09.59l.27.05-.15.87-.06.29-.1.58.3.05.09-.58.59.08,0-.29-.57-.08.14-.87a15.62,15.62,0,0,0,2.17.17H26l0,.88v.89h.31l0-.59.59,0,0-.3a5.46,5.46,0,0,1-.57,0l0-.89a13,13,0,0,0,2.16-.25l.27-.06.18.87.07.29.12.57.3-.07-.13-.57.28-.07.29-.08-.08-.28-.28.08-.28.06-.21-.86A12.5,12.5,0,0,0,31,38.72l.25-.11.35.81.12.27.24.54.28-.12L32,39.57l.27-.12.26-.14-.13-.26-.26.13c-.09,0-.18.08-.26.13l-.37-.81a14,14,0,0,0,1.89-1.06l.23-.16.5.73.17.24.34.48.25-.18-.35-.47c.16-.11.31-.24.47-.36l-.18-.23c-.15.12-.3.24-.46.35l-.52-.72a14.79,14.79,0,0,0,1.65-1.41l.19-.2.64.62.21.2.42.41.21-.22-.43-.4.2-.22.19-.23-.22-.19-.19.22-.19.22-.65-.6A15,15,0,0,0,37.2,33.6l.14-.23.75.48.24.16.5.32.17-.26-.51-.31c.11-.16.2-.34.3-.51l-.26-.14c-.09.16-.18.33-.29.5l-.75-.46a14.88,14.88,0,0,0,1-1.95l.1-.25.82.32.27.11.55.22.11-.29-.55-.2c.07-.19.13-.38.19-.56l-.28-.09-.18.54-.83-.3a15.62,15.62,0,0,0,.59-2.1l0-.27.87.16.29.05.58.1.06-.3-.59-.09c0-.2.06-.39.08-.59l-.29,0c0,.19-.05.38-.08.57l-.87-.14a14.22,14.22,0,0,0,.17-2.17v-.27l.89,0h.88v-.3l-.59,0c0-.2,0-.39,0-.59l-.3,0a5.65,5.65,0,0,1,0,.58l-.88,0a15.7,15.7,0,0,0-.25-2.16l-.06-.27.86-.19.29-.06.57-.12-.07-.3-.57.13a2.86,2.86,0,0,0-.07-.28l-.08-.29-.28.08.08.28a2.86,2.86,0,0,0,.07.28l-.86.21a13.51,13.51,0,0,0-.67-2.07,1.89,1.89,0,0,0-.11-.25l.81-.36.27-.12.54-.23-.13-.28-.53.24c0-.09-.08-.18-.13-.27l-.13-.26-.26.14.13.25.12.27-.8.37a14.65,14.65,0,0,0-1.06-1.9L37,18l.73-.5.24-.17.48-.34-.18-.25-.47.35a5.82,5.82,0,0,0-.36-.47l-.23.18c.12.15.24.3.35.46l-.72.52a13.9,13.9,0,0,0-1.41-1.66l-.19-.19.61-.64.2-.21.41-.42-.22-.21-.4.43-.22-.2-.22-.19-.2.22.22.19.22.19-.6.65a15.85,15.85,0,0,0-1.71-1.35l-.23-.14.48-.75.16-.25.32-.49-.26-.17-.31.5L33,12.75l-.14.25.5.29-.47.76a14,14,0,0,0-1.93-1l-.25-.1.32-.83.1-.27.22-.55-.29-.11-.2.55-.56-.19-.09.28.55.19-.31.83a13.81,13.81,0,0,0-2.09-.59l-.27,0,.16-.87.05-.29.1-.58-.3-.05L28,11l-.59-.08,0,.29.57.08-.13.87A15.86,15.86,0,0,0,25.68,12H25.4V10.24h-.31l0,.59c-.2,0-.4,0-.59,0l0,.3c.19,0,.38,0,.58,0l0,.89a13.12,13.12,0,0,0-2.16.25,2,2,0,0,0-.26.06l-.19-.87-.07-.29-.12-.57-.3.07.14.57-.29.07-.28.08.08.28.27-.08.29-.06.2.86a13.88,13.88,0,0,0-2.07.67l-.25.11-.35-.81-.12-.27-.23-.54-.28.12.24.54-.26.12-.27.14.14.26.25-.13.27-.12.37.8A14.65,14.65,0,0,0,18,14.34l-.22.16-.51-.73-.17-.24-.33-.48-.25.18.34.47c-.16.11-.31.24-.47.36l.18.23.47-.35.51.72a15.75,15.75,0,0,0-1.65,1.41l-.19.2-.63-.61-.22-.21L14.42,15l-.21.22.43.4-.2.22-.19.23.22.19.19-.22.2-.22.64.61a14.1,14.1,0,0,0-1.35,1.71l-.14.23-.74-.48L13,17.77l-.5-.32-.16.26.5.31c-.11.17-.2.34-.3.51l.26.14c.1-.16.19-.33.29-.5l.75.46a14.88,14.88,0,0,0-1,1.95l-.1.25L12,20.51l-.27-.11-.55-.22-.11.29.55.2c-.07.19-.13.38-.19.56l.28.1c.06-.19.12-.37.19-.55l.82.3a15.57,15.57,0,0,0-.58,2.1l-.05.27-.87-.16-.29-.05-.58-.1-.05.3.58.09c0,.2-.05.39-.08.59l.29,0c0-.19.05-.38.08-.57l.87.14a15.62,15.62,0,0,0-.17,2.17v.27l-.88,0h-.89v.3l.59,0c0,.2,0,.4,0,.59l.3,0a5.65,5.65,0,0,1,0-.58l.88,0a14.31,14.31,0,0,0,.26,2.16,2.56,2.56,0,0,0,.05.27l-.86.19-.29.06-.57.13.07.29.57-.13c0,.09,0,.19.07.29l.08.28.28-.08-.08-.28-.06-.28.85-.21a14.7,14.7,0,0,0,.67,2.07,1.89,1.89,0,0,0,.11.25l-.81.36-.27.12-.54.23.13.28L12,32.2c0,.09.07.18.12.27l.13.26.27-.13-.14-.26-.12-.27.8-.37a14.65,14.65,0,0,0,1.06,1.9l.16.23-.72.5-.24.17-.49.34.18.25.48-.35c.11.17.23.32.35.48L14.1,35c-.11-.15-.24-.3-.35-.46l.72-.52a14.9,14.9,0,0,0,1.41,1.66l.2.19-.62.64-.2.21-.41.42.23.22.39-.44.22.2.23.19.19-.22-.22-.19-.22-.19.6-.65A15.85,15.85,0,0,0,18,37.44l.23.15-.48.74-.16.25-.31.49.25.17.31-.5.51.3.15-.26-.5-.29ZM15.34,38l.24.2.25.19-.19.24-.25-.2-.24-.21L14.91,38l-.35-.32-.34-.33L14,37.15l1.27-1.23-.3-.31-.27-.32-.45.38c-.07-.07-.13-.15-.19-.22l.45-.38-.35-.44.23-.18.35.44.18.21.27.31.29.31.19.2-1.25,1.25.34.32.35.32.39-.44.23.2-.39.45Zm-1.88-2.86.18.24-.46.36.19.25.21.24-.23.19-.2-.24L13,36l-.2-.26c-.1-.12-.18-.25-.28-.38l-.27-.39L12,34.65l1.48-1c-.07-.12-.15-.23-.22-.36L13.07,33l-.51.29c-.05-.09-.1-.17-.14-.26l.52-.28-.26-.5.26-.13.26.5.13.24.21.36.22.35.15.24-1.47,1h0l.27.39c.09.12.18.26.28.38l.47-.36Zm-2.1-2.31.52-.26.14.27-.52.27a5.77,5.77,0,0,0,.29.55l-.25.15c-.11-.18-.21-.38-.3-.56L11.09,33c-.07-.14-.13-.29-.2-.43s-.13-.29-.19-.44l-.12-.3,1.65-.64-.08-.2-.08-.2-.13-.41-.56.19c0-.1-.07-.19-.09-.29l.56-.17-.15-.54.28-.08.15.54.09.26.13.4c0,.07.05.13.07.19l.08.2.1.26L11,32c.06.14.13.28.19.43l.2.42Zm-1.09-2.93.57-.15.09.29-.57.16c.06.2.11.4.18.6l-.28.09c-.07-.2-.12-.41-.18-.61L10,30c0-.15-.07-.31-.11-.46s-.08-.31-.1-.47l-.06-.32,1.74-.3c0-.14-.05-.28-.07-.42l-.05-.43-.59.07a2.85,2.85,0,0,1,0-.29l.58-.06,0-.57h.29l0,.55a2.66,2.66,0,0,0,0,.28l0,.41c0,.14.05.28.07.41l.05.28L10.07,29a3.41,3.41,0,0,0,.1.46c0,.15.07.31.1.46Zm-.48-3.09.59,0,0,.31-.59,0c0,.21,0,.42.06.62l-.29,0c0-.21,0-.42-.06-.64l0-.31V25.57l1.76,0v-.43l0-.43-.59,0,0-.3.58.06c0-.19,0-.38.07-.56l.29,0c0,.18-.05.36-.06.55l0,.28,0,.41v.7H9.76v.94Zm2.66-8.71-.15.26-.51-.28a5.77,5.77,0,0,0-.29.55l-.26-.13a6.19,6.19,0,0,1,.3-.57l.15-.27.12-.21.13-.2.26-.41.18-.26,1.45,1,.24-.34.27-.34-.47-.36.19-.24.45.38c.12-.15.25-.29.37-.43l.22.19-.36.42-.17.22-.26.33-.24.34-.16.23-1.47-1-.25.39-.13.2-.11.2.5.3Zm1.77-2.43-.2.23-.44-.39-.21.24-.19.25L13,15.83l.2-.25.2-.24.21-.24c.1-.12.22-.24.33-.35l.33-.35.23-.22,1.22,1.28.31-.3.32-.28-.38-.44.22-.2.37.46.45-.35.18.23-.44.35-.21.18-.32.27-.3.29-.2.19-1.25-1.25L14.1,15c-.11.11-.22.23-.32.35l.44.39Zm2.21-2-.24.19-.36-.46-.25.19-.24.2-.19-.22.24-.21.25-.19.25-.2.39-.28.39-.28.27-.17.95,1.49.36-.23.37-.21-.29-.51c.09-.05.17-.11.26-.15l.28.52.5-.26.13.27-.49.25a2,2,0,0,0-.25.14l-.36.2-.35.23-.23.15-1-1.47c-.13.08-.25.18-.38.27s-.26.17-.38.27l.36.47Zm2.29-1.44-.27-.52L17.9,12l-.14-.25a6,6,0,0,1,.56-.3l.28-.15.44-.2.43-.19.3-.12.64,1.65.2-.08.2-.07.4-.14L21,11.56l.28-.09.17.57.55-.16.07.29-.53.15-.27.08-.39.14-.2.07-.19.07-.26.11-.67-1.64-.43.19-.43.2.26.53-.27.13Zm2.8-1.09-.16-.57c-.2.06-.41.11-.6.18l-.09-.28a6.13,6.13,0,0,1,.61-.18l.3-.09.47-.11a3.78,3.78,0,0,1,.46-.1l.32-.06.31,1.74.42-.07.42-.05-.07-.59a2.85,2.85,0,0,1,.29,0l.06.58.57,0v.29l-.55,0-.28,0-.41,0-.41.07-.28.05-.34-1.73a4.24,4.24,0,0,0-.46.1l-.45.1.15.57-.29.09Zm2.95-.53,0-.59c-.21,0-.42,0-.62.06l0-.29c.21,0,.42,0,.64-.06l.31,0h.48l.48,0H26l0,1.77h.43l.42,0,.05-.59.29,0-.06.58.57.07,0,.29c-.19,0-.37-.05-.56-.06l-.27,0-.42,0h-.69V9.94h-.94l0,.59-.3,0Zm3,.06.07-.59c-.21,0-.42,0-.63-.06l0-.29.63.06.32,0,.23,0,.24,0,.47.09.31.06-.38,1.73.42.1.2.05.21.06.16-.57.28.08-.17.57.27.08.27.09-.1.28-.26-.09-.27-.08-.26-.08-.2-.06-.2,0L28.71,12,28.44,12l.34-1.73-.46-.09-.23,0-.23,0-.08.59-.3,0Zm5,2.48.5.28-.15.26-.48-.28-.25-.13-.37-.18-.38-.17-.26-.11.68-1.64L31.33,11l-.22-.08-.22-.08-.19.56-.29-.1.18-.56c-.19-.07-.39-.12-.59-.18l.08-.28a5.94,5.94,0,0,1,.6.18l.31.1.22.08.23.08.44.18.29.13-.71,1.62.39.17.38.19.27-.52.26.13-.28.52Zm3.53.64-.24-.2-.24-.19.18-.23.25.19.24.21.24.21.35.32.35.33.22.23-1.27,1.23.29.31.28.32.44-.38.2.22-.46.38.35.44-.23.18-.35-.44c0-.07-.12-.14-.18-.21l-.27-.31-.29-.31-.19-.2,1.25-1.25-.34-.32c-.11-.11-.22-.22-.34-.32l-.4.44-.22-.2.38-.45Zm4,5.17-.53.26-.14-.27.52-.27a5.77,5.77,0,0,0-.29-.55l.26-.15c.11.18.2.38.3.57l.14.28c.07.14.13.29.2.43s.14.29.19.44l.12.3-1.64.64.07.2a1.67,1.67,0,0,1,.08.2l.13.41.56-.19c0,.1.07.19.09.29l-.56.17.15.54-.28.08-.15-.54-.09-.26-.13-.4a1.46,1.46,0,0,0-.07-.19l-.08-.2-.1-.26,1.63-.67c-.05-.15-.13-.29-.19-.44s-.12-.28-.19-.42Zm1.08,2.93-.57.15-.08-.29.56-.16c-.06-.2-.11-.4-.18-.6l.28-.09c.07.2.13.41.19.61l.08.31c0,.15.08.31.11.46a3.94,3.94,0,0,1,.1.47l.06.32-1.74.3a3.07,3.07,0,0,1,.07.42l.06.43.58-.07c0,.1,0,.19,0,.29l-.59.06,0,.57H39.8l0-.55,0-.28-.06-.41a2.7,2.7,0,0,0-.07-.41l-.05-.28,1.74-.34c0-.16-.07-.31-.1-.46s-.07-.31-.11-.46Zm.79,3.31v-.24l0-.31c0-.22,0-.43-.06-.64l-.29,0c0,.2,0,.41.06.62l-.59.05,0,.3.59,0v.94H39.83v.7l0,.41,0,.28c0,.19,0,.37-.07.55l.29,0c0-.18.05-.37.07-.56l.59.06,0-.3-.59,0c0-.15,0-.29,0-.43v-.43l1.77,0v-1Zm.29,1.37,0-.65V25l0-.28,0-.57L42,23.63l-.87.12c0,.2.05.4.07.61l-.29,0c0-.2,0-.39-.07-.59l-.59.08a2.54,2.54,0,0,0,0-.29l.58-.09.29,0L42,23.3l-.12-.64c0-.18-.08-.37-.12-.55a4.92,4.92,0,0,0-.14-.55L41.45,21l-.18-.54-.84.29.1.29c0,.1.07.2.1.29l-.29.09c0-.1-.06-.19-.09-.29l-.09-.28-.56.19-.09-.27.55-.21.27-.1.83-.31-.24-.6c-.06-.18-.15-.35-.22-.52s-.16-.35-.25-.51L40.19,18l-.28-.49-.76.44c.1.18.21.36.3.54l-.26.14c-.09-.18-.19-.35-.29-.53l-.51.3c0-.08-.09-.17-.15-.25l.5-.31.26-.15.75-.46-.35-.55-.33-.47L38.91,16l-.18-.22-.35-.45L38,14.91l-.66.58.4.47-.23.19-.39-.46-.44.39a1.9,1.9,0,0,0-.19-.21l.43-.41.21-.2.65-.6-.45-.47a18.49,18.49,0,0,0-1.7-1.49l-.54.71.49.38L35.4,14l-.47-.38-.36.47-.23-.17.34-.48.18-.23.52-.72-.53-.37c-.32-.21-.64-.42-1-.6s-.66-.36-1-.53l-.39.79.55.28-.14.26-.53-.27-.26.53-.26-.12.24-.54.13-.27.37-.8-.6-.26-.53-.21-.26-.1-.27-.09c-.36-.13-.72-.22-1.09-.33l-.22.86.59.17-.08.28L29.55,11l-.15.57-.28-.06.13-.58.07-.28.21-.86-.64-.14c-.37-.07-.74-.14-1.12-.18s-.75-.08-1.12-.11l0,.88.61.05,0,.29-.6,0,0,.59-.28,0,0-.59v-.29l0-.88-.64,0h-.85l-.29,0-.56,0-.56.07.12.87.61-.07,0,.29-.59.08.08.58-.29,0-.09-.58-.05-.29-.13-.88-.64.12c-.19,0-.37.08-.56.12a5.54,5.54,0,0,0-.55.14l-.54.15-.54.18.29.84.29-.1c.1,0,.19-.07.29-.09l.09.28c-.1,0-.19.06-.29.09l-.28.1.19.55-.28.1-.2-.55-.1-.28L20,10.37l-.6.24-.52.23a4.74,4.74,0,0,0-.51.24l-.51.26-.49.28.45.76.53-.3.14.26c-.18.09-.35.2-.52.3l.3.51-.25.14-.31-.5-.16-.25-.46-.75-.54.35-.47.32-.23.17-.22.17-.44.36-.43.37.58.66.47-.4L16,14l-.45.39.39.44-.22.19-.4-.43-.2-.21-.59-.65-.47.44a18.74,18.74,0,0,0-1.49,1.72l.7.53L13.6,16l.23.19-.37.47.47.36a2,2,0,0,0-.18.23l-.47-.35L13,16.69l-.71-.52L12,16.7c-.2.32-.41.63-.59,1s-.36.66-.53,1l.79.39.28-.55.26.14-.28.54.53.25-.12.27-.53-.25-.27-.12-.8-.38c-.09.2-.18.4-.26.6l-.21.53c0,.09-.07.18-.1.27l-.09.27c-.13.35-.22.72-.32,1.08l.85.23.17-.6.28.09-.17.58.57.15-.06.28-.58-.14-.28-.06L9.63,22c-.05.21-.1.42-.14.63-.07.38-.14.75-.18,1.13s-.08.75-.11,1.13l.89,0,0-.61.29,0,0,.61L11,25c0,.1,0,.19,0,.29l-.58,0h-.3l-.88,0,0,.65,0,.57v.28l0,.28,0,.57.07.56.88-.12c0-.2-.06-.4-.08-.61l.29,0c0,.2.05.4.08.59l.58-.08a2.54,2.54,0,0,0,0,.29l-.58.09-.29.05-.87.14.11.64c0,.18.08.37.12.55s.08.37.14.55l.16.55c.05.18.11.36.17.54l.84-.29-.1-.29c0-.1-.07-.2-.09-.29l.28-.09c0,.1.06.19.09.29l.1.28.55-.19c0,.09.06.18.1.27l-.56.21-.27.1-.83.31.24.6c.07.18.15.35.23.52a4.74,4.74,0,0,0,.24.51l.26.51.28.49.76-.44c-.1-.18-.21-.36-.3-.54l.26-.14c.09.18.2.35.3.53l.5-.3c0,.08.09.17.15.25l-.5.31-.25.15-.75.46.34.55.33.47.17.23.17.22.35.45.37.43.66-.59-.4-.47.23-.19.39.46.44-.39.2.22-.44.4-.21.2-.65.6.45.47a18.81,18.81,0,0,0,1.71,1.49l.53-.71L15.77,38l.18-.23.48.38.35-.47.24.17-.35.48-.17.23-.52.72.53.37c.32.21.63.42,1,.6s.67.36,1,.53l.39-.79-.55-.28.14-.26.54.27.25-.53.27.12-.25.54-.12.27-.37.8.59.26.53.21.27.1.26.09c.36.13.73.22,1.09.33l.22-.86-.59-.17.09-.28.58.17.14-.57.29.06-.14.58-.07.28-.21.86c.22.05.43.11.64.14.37.07.74.14,1.12.18s.75.08,1.13.11l.05-.88-.61-.05,0-.29.6,0,0-.59.29,0,0,.59v.29l0,.88.65,0h.85l.28,0,.56,0,.57-.07-.12-.87-.61.07,0-.29.6-.08-.08-.58.28,0,.09.58.05.29.14.88.63-.12c.19,0,.37-.08.56-.12a5.54,5.54,0,0,0,.55-.14l.55-.15.53-.18-.29-.84-.29.1a2.46,2.46,0,0,1-.29.09l-.08-.28.28-.09.29-.1-.2-.55.28-.1.2.56.1.27.31.83.6-.24.52-.23A4.74,4.74,0,0,0,33,40.7l.51-.26.49-.28-.45-.76-.53.3-.14-.26c.18-.09.35-.2.53-.3l-.3-.51.25-.14.3.5.16.25.46.75.55-.35c.15-.1.3-.22.46-.32l.23-.17.22-.17.45-.36.43-.37-.59-.66-.46.4-.19-.23.46-.39-.4-.44.22-.19.4.43.2.21.6.65.46-.44a17.32,17.32,0,0,0,1.49-1.72l-.7-.53-.38.48-.23-.19.38-.47-.47-.36c.06-.07.11-.15.17-.23l.47.35.24.17.72.52.37-.53c.2-.32.41-.63.59-1s.36-.66.54-1l-.8-.39-.28.55-.26-.14.28-.54-.53-.25.12-.27.53.25.27.12.8.38c.09-.2.18-.4.26-.6l.21-.53c0-.09.07-.18.1-.27l.09-.26c.13-.36.22-.73.33-1.09l-.86-.23-.16.6-.29-.09.17-.58-.57-.15c0-.09,0-.19.07-.28l.57.14.28.06.86.21c.05-.21.1-.42.14-.63.07-.38.14-.75.18-1.13s.08-.75.11-1.13l-.88-.05-.05.61-.29,0,0-.61-.58,0a2.81,2.81,0,0,0,0-.29l.59,0h.29l.88,0ZM17.9,39.81l.55.29-.13.26a6,6,0,0,1-.56-.3l-.28-.16-.21-.11-.2-.13-.4-.26-.26-.18,1-1.45-.35-.25-.33-.26-.37.46-.23-.18.37-.46-.43-.37.2-.22.42.36.22.18.33.25.34.24a1.88,1.88,0,0,0,.23.16l-1,1.47.39.26.2.12.2.12.3-.51.26.15-.29.52Zm2.86,1.25c.19.07.4.12.6.18l-.08.29-.61-.19-.3-.1-.23-.08-.22-.08-.45-.18-.29-.13.71-1.62L19.5,39l-.38-.19-.27.52-.26-.13.28-.52-.5-.28.15-.25.49.27.24.13c.13.06.25.13.38.18l.38.17.25.11-.67,1.64.43.17.22.08.22.08.2-.56.28.1-.18.56Zm3,.67c.2,0,.41,0,.62.06l0,.29c-.22,0-.43,0-.64-.06l-.31,0-.24,0-.23,0-.48-.09-.31-.06L22.58,40l-.41-.1-.21,0-.2-.06-.16.57-.29-.08.17-.56-.27-.09-.27-.09.1-.28.26.09.27.08.27.08.2.06.2,0,.4.09.27.06-.34,1.74.46.08.23,0,.24,0,.08-.59.3,0-.07.59Zm6.78-.67c-.19.07-.39.12-.59.18l-.16-.57-.29.09.14.57-.45.1-.46.11-.34-1.74-.28.05-.41.07-.41,0a2.4,2.4,0,0,1-.28,0l-.55,0,0,.29.56,0,.06.58a2.58,2.58,0,0,0,.29,0l-.07-.59.43,0,.42-.07.3,1.74.32-.06a3.78,3.78,0,0,0,.46-.1l.47-.11.31-.08.6-.19-.09-.28ZM41,30.22l.29.08c-.06.2-.12.41-.19.61l-.1.3-.08.23a1.43,1.43,0,0,1-.08.22l-.18.45-.12.29-1.62-.71-.17.39c-.06.13-.13.25-.2.38l.53.27-.14.26-.51-.28-.28.5-.26-.15.28-.48.12-.25.19-.38.17-.38a1.89,1.89,0,0,0,.11-.25l1.63.67.17-.43.09-.22.07-.22-.55-.2.09-.28.56.18c.07-.2.12-.4.18-.6Zm-2.2-11.69a2.15,2.15,0,0,1,.14.26l-.51.28.25.5-.26.13-.25-.49A2,2,0,0,0,38,19l-.21-.36c-.07-.12-.14-.24-.22-.35L37.44,18l1.47-1-.27-.39-.28-.38-.46.36-.19-.24.46-.36L38,15.77l-.21-.24.23-.19.21.24.39.51c.1.12.19.25.28.38s.19.26.27.39l.17.27-1.48,1c.07.12.16.23.23.36l.21.37.51-.29ZM34.84,14.7l.43.37-.2.22-.42-.36-.22-.18c-.11-.08-.21-.17-.33-.25l-.34-.24-.22-.16,1-1.47-.4-.26-.19-.12-.21-.12-.29.51-.27-.15.29-.52c-.18-.1-.36-.2-.55-.29l.13-.26.57.3.27.16.21.12.2.12.4.26.26.18-1,1.45.35.25c.11.09.22.18.34.26l.36-.46.23.18-.37.46ZM13.22,18.57l.25.15c-.09.16-.19.32-.27.49l-.13.24c-.06.13-.13.25-.19.38l-.17.38a2.72,2.72,0,0,0-.11.25L11,19.78l-.17.44c0,.08-.06.15-.08.22l-.08.22.56.2-.1.28L10.54,21c-.07.2-.12.4-.18.6l-.28-.08c.06-.2.11-.41.18-.61l.1-.3.08-.23a2,2,0,0,0,.08-.22l.18-.45c0-.1.08-.19.13-.29l1.61.71.18-.39a3.37,3.37,0,0,1,.19-.38l-.53-.27.14-.26.52.28c.08-.17.18-.33.28-.5ZM12,21.15l.28.09-.09.27-.09.26-.07.27-.06.2a1.94,1.94,0,0,0-.05.2l-.09.41a2.61,2.61,0,0,0-.06.27l-1.73-.34-.09.46,0,.23,0,.24.59.08,0,.29L9.87,24c0,.2,0,.41-.06.62l-.29,0c0-.21,0-.43.06-.64l0-.31,0-.24,0-.24.09-.47c0-.1,0-.21.06-.31l1.73.38.09-.42.06-.2.06-.21-.57-.16.08-.28.56.17.09-.27Z" transform="translate(-8.74 -8.95)"/><path class="cls-3" d="M13.94,32.66h0a13.56,13.56,0,1,1,23.47,0H13.94Z" transform="translate(-8.74 -8.95)"/><path class="cls-2" d="M37.41,32.66a13.54,13.54,0,0,1-23.47,0h0s1-.73,1.48-1.06a18.52,18.52,0,0,1,4-2,6.77,6.77,0,0,0,12.54,0,18.68,18.68,0,0,1,4,2c.51.33,1.48,1.06,1.48,1.06Z" transform="translate(-8.74 -8.95)"/><path class="cls-1" d="M37.41,32.66s-1-.73-1.48-1.06a18.68,18.68,0,0,0-4-2,6.77,6.77,0,0,1-12.54,0,18.52,18.52,0,0,0-4,2c-.5.33-1.48,1.06-1.48,1.06L25.68,12.29Z" transform="translate(-8.74 -8.95)"/><path class="cls-2" d="M27.6,20.27v0a1.93,1.93,0,0,1-3.85,0v0a2.12,2.12,0,0,0,1.93,1.26,2.09,2.09,0,0,0,1.92-1.26Zm-3.32-.49a1.4,1.4,0,1,0,1.4-1.4,1.4,1.4,0,0,0-1.4,1.4Zm.52-2.63a.88.88,0,1,0,1.75,0c0-.35-.22-.39-.22-.53s.13-.3-.13-.52c.13.22-.09.26-.09.48s.09.22.09.4a.18.18,0,0,1-.17.17.18.18,0,0,1-.18-.17c0-.18.18-.36.18-.62a.9.9,0,0,0-.18-.57c-.13-.22-.35-.39-.17-.57-.27.09-.13.44-.13.66s-.18.35-.18.61.13.31.13.49a.18.18,0,0,1-.17.17.18.18,0,0,1-.18-.17c0-.18.09-.18.09-.4s-.22-.26-.09-.48c-.26.22-.13.39-.13.52s-.22.18-.22.53ZM21.83,31h1.75V22.58H21.83V31Zm6,0h1.74V22.58H27.78V31Zm-3.85-6.31h3.5V24h-3.5v.7Zm0,4.91h3.5v-.7h-3.5v.7Zm0-7,1.75,1.05,1.75-1.05Zm0,7.36L25.68,31,27.43,30Zm1.75-1.88a.35.35,0,0,0,.35-.35.35.35,0,0,0-.35-.35.35.35,0,0,0-.35.35.34.34,0,0,0,.35.35Zm.83-2.82a1.76,1.76,0,0,1-.83,3.3.83.83,0,1,1,0-1.65,1,1,0,0,0,1-1,1.06,1.06,0,0,0-.2-.61Zm-.83.26a.35.35,0,0,0-.35.35.34.34,0,0,0,.35.35.35.35,0,0,0,.35-.35.35.35,0,0,0-.35-.35Zm-1,2.21a1.05,1.05,0,0,0,.21.62,1.76,1.76,0,0,1,.83-3.3.83.83,0,0,1,0,1.65A1,1,0,0,0,24.64,27.72Z" transform="translate(-8.74 -8.95)"/><path class="cls-4" d="M18.45,33.8l-.36-.35-1,1-.27-.27,1-1-.36-.36.22-.22,1,1-.23.22Zm1.29.82a.78.78,0,0,0-.34-.55.82.82,0,0,0-.64-.17.9.9,0,0,0-.57.39A.89.89,0,0,0,18,35a.79.79,0,0,0,.34.56.81.81,0,0,0,.64.16.86.86,0,0,0,.56-.39.88.88,0,0,0,.2-.66Zm-1.31,0,.74.53a.61.61,0,0,1-.28.19.39.39,0,0,1-.36-.07.44.44,0,0,1-.19-.33.68.68,0,0,1,.09-.32Zm.9.3a.48.48,0,0,0,.06-.27.44.44,0,0,0-.54-.4.49.49,0,0,0-.24.14l.72.53Zm1.51.09a.73.73,0,0,1,.34.33.49.49,0,0,1,0,.45.47.47,0,0,1-.34.28.65.65,0,0,1-.44-.08L20,35.8l-.28.55-.33-.17.78-1.52.65.34Zm-.69.54.3.16c.17.09.29.06.37-.09s0-.26-.14-.35l-.3-.15-.23.43Zm2.18,1.88.56-1.61-.4-.14-1,.91h0l.38-1.12-.35-.12L21,37l.4.13,1-.91h0L22,37.3l.35.12Zm1.9.38-.36-.07.2-1.16h0l-.83,1-.42-.07.3-1.68.36.06-.2,1.17h0L24.11,36l.42.08-.3,1.68Zm.05-2.19-.13,0c0,.1-.13.14-.28.12s-.22-.1-.23-.2l-.13,0c0,.23.07.36.33.41s.4-.05.44-.27Zm1.88,2.26h-.37v-.73l-.69,0,0,.74h-.37l0-1.7h.38l0,.65h.7v-.64h.37l0,1.71Zm2.67-.39-.39.08-.2-.35-.62.12-.07.4-.37.07L27.5,36l.38-.07.95,1.55Zm-1.07-1.11-.1.67L28.1,37l-.34-.59Zm1.32.69.1.3a.76.76,0,0,0,.21,0,.42.42,0,0,0,.27-.21,1,1,0,0,0,.11-.43l.14-1.37-.38.13-.07,1-.65-.73-.39.14.81.83a.77.77,0,0,1,.15.19.14.14,0,0,1,0,.11.24.24,0,0,1-.11.08.36.36,0,0,1-.18,0ZM32,36.63l-.2-.38-1,.49.2.39-.32.17-.35-.68.12-.06a1.87,1.87,0,0,0-.28-1.13l-.11-.23,1.07-.55.64,1.23L32,35.8l.35.67-.32.16Zm-1-1.54-.41.22v0a2.23,2.23,0,0,1,.28,1l.62-.32-.5-1ZM33.61,35l-1-1.38-.34.25.18,1.33h0l-.7-.95-.3.22,1,1.37.34-.25-.19-1.33h0l.7,1,.3-.22Zm.29-2.2-.37.36,1,1-.26.26-1-1-.37.36-.22-.23,1-1Z" transform="translate(-8.74 -8.95)"/><text class="cls-5" transform="translate(42.76 14.96)"><tspan class="cls-6">Т</tspan><tspan x="5.44" y="0">ӨРИЙН А</tspan><tspan class="cls-7" x="44.7" y="0">У</tspan><tspan x="50.02" y="0">Д</tspan><tspan class="cls-8" x="56.75" y="0">И</tspan><tspan class="cls-9" x="62.92" y="0">ТЫН </tspan><tspan x="9.74" y="10.8">БАЙГУ</tspan><tspan class="cls-10" x="38.43" y="10.8">У</tspan><tspan class="cls-11" x="43.87" y="10.8">ЛЛ</tspan><tspan class="cls-12" x="56.73" y="10.8">А</tspan><tspan class="cls-13" x="62.79" y="10.8">Г</tspan><tspan x="66.9" y="10.8">А</tspan></text></svg>