<?xml version="1.0" encoding="utf-8"?>
<!-- Generator: Adobe Illustrator 23.0.3, SVG Export Plug-In . SVG Version: 6.00 Build 0)  -->
<svg version="1.1" id="Layer_1" xmlns="http://www.w3.org/2000/svg" xmlns:xlink="http://www.w3.org/1999/xlink" x="0px" y="0px"
	 viewBox="0 0 251.6 173" style="enable-background:new 0 0 251.6 173;" xml:space="preserve">
<style type="text/css">
	.st0{fill:#39900F;}
	.st1{fill:#FFFFFF;}
</style>
<rect class="st0" width="251.6" height="173"/>
<g>
	<g>
		<g>
			<path class="st1" d="M125.8,120.5C79.4,80.5,33.1,40.6-13.3,0.6C-7.9-2.2-2.5-5,2.9-7.8c41,35.8,81.9,71.6,122.9,107.5
				C167.5,63.4,209.3,27.2,251-9.1c3.7,3.8,7.4,7.7,11.1,11.5C216.7,41.8,171.2,81.1,125.8,120.5z"/>
		</g>
	</g>
	<g>
		<path class="st1" d="M-7.1,168.7c31.9-31.8,63.9-63.7,95.8-95.5l11.1,11.1c-32.6,32.7-65.3,65.4-97.9,98.1
			C-1.1,177.8-4.1,173.2-7.1,168.7z"/>
	</g>
	<g>
		<path class="st1" d="M151.7,84.2l11.1-11.1c33.6,33.5,67.1,67.1,100.7,100.6c-5.9,1.5-11.9,3-17.8,4.5
			C214.4,146.8,183.1,115.5,151.7,84.2z"/>
	</g>
</g>
<path class="st1" d="M-12.2,34.2"/>
</svg>
