<?xml version="1.0" encoding="utf-8"?>
<!-- Generator: Adobe Illustrator 23.0.3, SVG Export Plug-In . SVG Version: 6.00 Build 0)  -->
<svg version="1.1" id="Layer_1" xmlns="http://www.w3.org/2000/svg" xmlns:xlink="http://www.w3.org/1999/xlink" x="0px" y="0px"
	 viewBox="0 0 34.2 37.9" style="enable-background:new 0 0 34.2 37.9;" xml:space="preserve">
<style type="text/css">
	.st0{fill:#2684FE;}
</style>
<g>
	<path class="st0" d="M31.7,31.4H2.5l3.6-7.2v-9.8c0-6.1,4.9-11,11-11c6.1,0,11,4.9,11,11v9.8L31.7,31.4z M5.7,29.4h22.8l-2.4-4.8
		V14.4c0-5-4-9-9-9c-5,0-9,4-9,9v10.2L5.7,29.4z"/>
</g>
<g>
	<path class="st0" d="M17.1,35.4c-2.8,0-5-2.2-5-5h2c0,1.7,1.3,3,3,3c1.7,0,3-1.3,3-3h2C22.1,33.2,19.9,35.4,17.1,35.4z"/>
</g>
</svg>
