<?xml version="1.0" encoding="utf-8"?>
<!-- Generator: Adobe Illustrator 23.0.3, SVG Export Plug-In . SVG Version: 6.00 Build 0)  -->
<svg version="1.1" id="Layer_1" xmlns="http://www.w3.org/2000/svg" xmlns:xlink="http://www.w3.org/1999/xlink" x="0px" y="0px"
	 viewBox="0 0 139.8 180.4" style="enable-background:new 0 0 139.8 180.4;" xml:space="preserve">
<style type="text/css">
	.st0{display:none;}
	.st1{display:inline;fill:#FFFFFF;}
	.st2{fill:#FFFFFF;}
</style>
<g class="st0">
	<path class="st1" d="M102,58.4c0,17.4-14.1,31.5-31.5,31.5C53.1,89.9,39,75.8,39,58.4s14.1-31.5,31.5-31.5
		C87.9,26.9,102,41,102,58.4z"/>
	<path class="st1" d="M114.3,153.5H25.6c-0.6,0-1.2-0.5-1.2-1.2v-12.8c0-25,20.5-45.5,45.5-45.5l0,0c25,0,45.5,20.5,45.5,45.5v12.8
		C115.4,153,114.9,153.5,114.3,153.5z"/>
</g>
<path class="st2" d="M110.9,72.9h-4V55.3c0-18.7-15.2-34-34-34c-18.7,0-34,15.2-34,34v17.5h-3.1c-3.5,0-6.2,2.8-6.2,6.2v67.5
	c0,3.5,2.8,6.2,6.2,6.2h75c3.4,0,6.2-2.8,6.2-6.2V79.1C117.1,75.7,114.3,72.9,110.9,72.9z M44.6,55.3C44.6,39.7,57.3,27,72.9,27
	c15.6,0,28.4,12.7,28.4,28.4v17.5H44.6V55.3z M90.7,139.9H73.9H57c-3,0-4.8-3.2-3.3-5.8l8.4-14.6l2.5-4.3c-5.8-3.1-9.8-9.3-9.8-16.4
	c0-10.3,8.3-18.6,18.6-18.6c10.3,0,18.6,8.3,18.6,18.6c0,6.8-3.7,12.7-9.1,16l2.7,4.7l8.4,14.6C95.5,136.7,93.6,139.9,90.7,139.9z"
	/>
</svg>
