<svg id="Layer_1" data-name="Layer 1" xmlns="http://www.w3.org/2000/svg" viewBox="0 0 394.04 506.91"><defs><style>.cls-1{fill:#2684fe;}</style></defs><title>CHBA TSENHER</title><path class="cls-1" d="M538.34,260.08V164.64a42.94,42.94,0,0,0-42.81-42.81H273.82A42.93,42.93,0,0,0,231,164.64V508.28a42.94,42.94,0,0,0,42.81,42.81H495.53a42.94,42.94,0,0,0,42.81-42.81V410.86H521.63v97.79a26.08,26.08,0,0,1-26,26H273.71a26.08,26.08,0,0,1-26-26V165.5a26.08,26.08,0,0,1,26-26H495.63a26.08,26.08,0,0,1,26,26v94.58Z" transform="translate(-231.01 -44.19)"/><path class="cls-1" d="M514.73,423.06l-42,73.84a14.81,14.81,0,0,1-3.55,4.27l-9.06-32.58a.74.74,0,0,0-1-.56L426,477a14.88,14.88,0,0,1,1.9-5.57l39.3-69c6.34.67,12.91,5.71,15,11.65a11.27,11.27,0,0,0,15.19,6.77C502.69,418.57,509.9,419.63,514.73,423.06Z" transform="translate(-231.01 -44.19)"/><path class="cls-1" d="M625.05,455.63l-33-7.25a.75.75,0,0,0-1,.6l-7.58,33.42a15,15,0,0,1-4-4.29l-35.06-55.2c4.73-2.63,11-3.28,15.77-1.28a11.27,11.27,0,0,0,15.2-6.77c2.19-6.31,9.46-11.6,16.15-11.73a10.86,10.86,0,0,0,1.28-.09l30.14,47.46A15.06,15.06,0,0,1,625.05,455.63Z" transform="translate(-231.01 -44.19)"/><path class="cls-1" d="M615.68,315.55c-5.33-4-8.11-12.59-6.17-19a11.27,11.27,0,0,0-8.32-14.4c-6.51-1.52-12.52-8.2-13.36-14.84a11.28,11.28,0,0,0-13.45-9.78c-6.57,1.27-14.78-2.39-18.24-8.11A11.29,11.29,0,0,0,539.87,246c-5.48,3.83-14.47,3.83-20,0a11.3,11.3,0,0,0-16.28,3.47c-3.46,5.72-11.66,9.38-18.23,8.11A11.28,11.28,0,0,0,472,267.32c-.83,6.64-6.84,13.32-13.36,14.84a11.28,11.28,0,0,0-8.32,14.4c2,6.4-.83,14.95-6.16,19a11.27,11.27,0,0,0-1.74,16.54c4.38,5.06,5.32,14,2.09,19.85a11.27,11.27,0,0,0,5.14,15.82c6,2.84,10.54,10.62,10,17.29a11.27,11.27,0,0,0,11.12,12.36c.39,0,.78,0,1.18.07,6.34.68,12.91,5.71,15,11.66a11.28,11.28,0,0,0,15.2,6.76c5.28-2.23,12.5-1.17,17.33,2.26a13.77,13.77,0,0,1,2.19,1.9,11.29,11.29,0,0,0,16.64,0,14.87,14.87,0,0,1,3.75-2.87c4.73-2.64,11-3.28,15.77-1.29a11.28,11.28,0,0,0,15.2-6.76c2.19-6.32,9.46-11.6,16.15-11.73a10.86,10.86,0,0,0,1.28-.1,11.25,11.25,0,0,0,9.85-12.26c-.56-6.67,3.92-14.45,10-17.29a11.28,11.28,0,0,0,5.14-15.82c-3.23-5.86-2.29-14.79,2.09-19.85A11.28,11.28,0,0,0,615.68,315.55ZM529.55,403a70.17,70.17,0,1,1,70.16-70.16A70.17,70.17,0,0,1,529.55,403Z" transform="translate(-231.01 -44.19)"/><path class="cls-1" d="M488,335.35a151.49,151.49,0,0,1,11.75,14.78c4.34,6.3,10.06,17.67,11.24,18.62,6.36,5.14,15.66,6.55,20.83,2.4,2.38-1.92,5.93-12.48,6.38-13.41,7.51-15.53,15.55-27,23.59-35.55A117.17,117.17,0,0,1,576,309.34a2.21,2.21,0,0,0,.48-1.39c-.06-.91-.88-1.76-2.82-2.7a29.62,29.62,0,0,0-11.89-2.61,28.06,28.06,0,0,0-9.69,3.21c-1.26.64-4.21,2.66-10.89,9.88a99.45,99.45,0,0,0-11.44,13.74,78.37,78.37,0,0,0-6.08,10.21,33.24,33.24,0,0,1-4.33,6c-1.07.94-2.59-2-4.95-5.16A60.56,60.56,0,0,0,508,333c-6.67-5.89-20.08-4.15-21.16-.66C486.63,333,486.73,333.89,488,335.35Z" transform="translate(-231.01 -44.19)"/><path class="cls-1" d="M407,67.84a24,24,0,0,0-47.95-.13c0,.15,0,.31,0,.46a24,24,0,0,0,15.62,22.49,22.93,22.93,0,0,0,4,1.1,24.55,24.55,0,0,0,4.39.4,23.89,23.89,0,0,0,3.81-.3,23.07,23.07,0,0,0,5-1.4,24,24,0,0,0,15.14-22.29A1.83,1.83,0,0,0,407,67.84Zm-23.69-15.6a9.21,9.21,0,1,1-9.2,9.22A9.22,9.22,0,0,1,383.34,52.24Z" transform="translate(-231.01 -44.19)"/><path class="cls-1" d="M358.91,67.59a31.73,31.73,0,0,1-3,6.72c-2.09,3.48-3,8.34-14.14,10.66s-16.22,6.49-17.38,10.2-1.62,19-5.8,26.42a40.15,40.15,0,0,0-4.86,13.91l68.83.23-4.87-55.16Z" transform="translate(-231.01 -44.19)"/><path class="cls-1" d="M407.3,67.67a31.14,31.14,0,0,0,3.11,6.72c2.16,3.47,3.12,8.34,14.62,10.66s16.77,6.49,18,10.2,1.68,19,6,26.42a39.27,39.27,0,0,1,5,13.9l-71.15.24,5-55.17Z" transform="translate(-231.01 -44.19)"/><ellipse class="cls-1" cx="152.34" cy="62.28" rx="11.53" ry="23.93"/><path class="cls-1" d="M69.09,87.83H237.5A22.17,22.17,0,0,1,259.68,110v6.58a0,0,0,0,1,0,0H46.91a0,0,0,0,1,0,0V110A22.17,22.17,0,0,1,69.09,87.83Z"/><rect class="cls-1" x="49.72" y="193.59" width="183.57" height="21.61" rx="8.87"/><rect class="cls-1" x="50.16" y="273.02" width="142.96" height="21.61" rx="8.87"/><rect class="cls-1" x="50.31" y="153.46" width="203.06" height="21.61" rx="8.87"/><rect class="cls-1" x="50.27" y="233.72" width="156.16" height="21.61" rx="8.87"/><rect class="cls-1" x="49.02" y="352.46" width="167.32" height="21.61" rx="8.87"/><rect class="cls-1" x="49.45" y="431.89" width="134.28" height="21.61" rx="8.87"/><rect class="cls-1" x="49.6" y="312.33" width="156.82" height="21.61" rx="8.87"/><rect class="cls-1" x="49.56" y="392.59" width="143.56" height="21.61" rx="8.87"/></svg>