<?xml version="1.0" encoding="utf-8"?>
<!-- Generator: Adobe Illustrator 23.0.3, SVG Export Plug-In . SVG Version: 6.00 Build 0)  -->
<svg version="1.1" id="Layer_1" xmlns="http://www.w3.org/2000/svg" xmlns:xlink="http://www.w3.org/1999/xlink" x="0px" y="0px"
	 viewBox="0 0 392.5 371.6" style="enable-background:new 0 0 392.5 371.6;" xml:space="preserve">
<style type="text/css">
	.st0{fill:#FFFFFF;}
</style>
<path class="st0" d="M196.2,18.2C186.2,7,171.7,0,155.7,0H54.6C24.6,0,0,24.6,0,54.6v101.1c0,30,24.6,54.6,54.6,54.6h101.1
	c16.1,0,30.6-7,40.6-18.2c8.7-9.7,14-22.5,14-36.4V54.6C210.3,40.6,204.9,27.8,196.2,18.2z M181.8,142.8c0,21.5-17.6,39.1-39.1,39.1
	H67.5c-21.5,0-39.1-17.6-39.1-39.1V67.5C28.4,46,46,28.4,67.5,28.4h75.2c21.5,0,39.1,17.6,39.1,39.1V142.8z"/>
<path class="st0" d="M249.7,28.4H325c20.9,0,38.1,16.6,39,37.3h28.5V54.6c0-30-24.6-54.6-54.6-54.6H236.8c-16.1,0-30.6,7-40.6,18.2
	c-8.7,9.7-14,22.5-14,36.4v101.1c0,14,5.3,26.8,14,36.4c10,11.1,24.5,18.2,40.6,18.2h101.1c30,0,54.6-24.6,54.6-54.6v-21H364v8.1
	c0,21.5-17.6,39.1-39.1,39.1h-75.2c-21.5,0-39.1-17.6-39.1-39.1V67.5C210.6,46,228.2,28.4,249.7,28.4z"/>
<circle class="st0" cx="378.2" cy="65.4" r="14.3"/>
<ellipse class="st0" cx="378.2" cy="133.8" rx="14.2" ry="14.3"/>
<g>
	<path class="st0" d="M105.1,227.2c-24.9,0-45.1,20.2-45.1,45.1c0,24.9,20.2,45.1,45.1,45.1c24.9,0,45.1-20.2,45.1-45.1
		C150.2,247.4,130,227.2,105.1,227.2z M105.1,289.5c-9.5,0-17.2-7.7-17.2-17.2c0-9.5,7.7-17.2,17.2-17.2s17.2,7.7,17.2,17.2
		C122.3,281.8,114.6,289.5,105.1,289.5z"/>
	<path class="st0" d="M140.1,300.8c-10.2-6.2-22.2-9.7-35-9.7c-12.8,0-24.8,3.5-35,9.7c-19.4,11.7-32.5,32.8-33,57h27.7
		c0.7-21.7,18.5-39,40.3-39c21.8,0,39.6,17.3,40.3,39h27.7C172.6,333.5,159.5,312.4,140.1,300.8z"/>
	<circle class="st0" cx="159.2" cy="357.7" r="13.9"/>
	<circle class="st0" cx="51" cy="357.7" r="13.9"/>
</g>
<g>
	<path class="st0" d="M301.4,131l-36.1-36.5c-4.6-4.7-4.6-12.3,0.1-17l2.4-2.3c4.7-4.6,12.3-4.6,17,0.1l36.1,36.5
		c4.6,4.7,4.6,12.3-0.1,17l-2.4,2.3C313.7,135.7,306,135.7,301.4,131z"/>
	<path class="st0" d="M321,94.8l-36.5,36.1c-4.7,4.6-12.3,4.6-17-0.1l-2.3-2.4c-4.6-4.7-4.6-12.3,0.1-17l36.5-36.1
		c4.7-4.6,12.3-4.6,17,0.1l2.3,2.4C325.7,82.5,325.6,90.2,321,94.8z"/>
</g>
<g>
	<path class="st0" d="M91.4,127.9l-2-2c-4.7-4.6-4.8-12.3-0.2-17l29.9-30.5c4.6-4.7,12.3-4.8,17-0.2l2,2c4.7,4.6,4.8,12.3,0.2,17
		l-29.9,30.5C103.8,132.5,96.1,132.6,91.4,127.9z"/>
	<path class="st0" d="M109.9,125.3l-2,2c-4.6,4.7-12.3,4.8-17,0.2L72.1,109c-4.7-4.6-4.8-12.3-0.2-17l2-2c4.6-4.7,12.3-4.8,17-0.2
		l18.9,18.5C114.5,113,114.5,120.6,109.9,125.3z"/>
</g>
<g>
	<path class="st0" d="M293.1,227.2c-24.9,0-45.1,20.2-45.1,45.1c0,24.9,20.2,45.1,45.1,45.1c24.9,0,45.1-20.2,45.1-45.1
		C338.2,247.4,318,227.2,293.1,227.2z M293.1,289.5c-9.5,0-17.2-7.7-17.2-17.2c0-9.5,7.7-17.2,17.2-17.2s17.2,7.7,17.2,17.2
		C310.3,281.8,302.6,289.5,293.1,289.5z"/>
	<path class="st0" d="M328.1,300.8c-10.2-6.2-22.2-9.7-35-9.7c-12.8,0-24.8,3.5-35,9.7c-19.4,11.7-32.5,32.8-33,57h27.7
		c0.7-21.7,18.5-39,40.3-39c21.8,0,39.6,17.3,40.3,39h27.7C360.6,333.5,347.5,312.4,328.1,300.8z"/>
	<circle class="st0" cx="347.2" cy="357.7" r="13.9"/>
	<circle class="st0" cx="239" cy="357.7" r="13.9"/>
</g>
</svg>
