<svg id="Layer_1" data-name="Layer 1" xmlns="http://www.w3.org/2000/svg" viewBox="0 0 488.88 481.78"><defs><style>.cls-1{fill:#2684fe;}</style></defs><title>2 TAILAN TSENHER</title><path class="cls-1" d="M453.29,492.71a26.12,26.12,0,0,1-26.05,26.05H205.43a26.12,26.12,0,0,1-26.05-26.05V467.32h-17v25.42a43.11,43.11,0,0,0,43,43H427.27a43.11,43.11,0,0,0,43-43v-89.8a93.63,93.63,0,0,1-17,5.31Zm-26-386.25H401.62v17.15h25.62a26.13,26.13,0,0,1,26.05,26.05v69.62a92.47,92.47,0,0,1,17,4.83V149.44A43.11,43.11,0,0,0,427.27,106.46Z" transform="translate(-110.68 -53.94)"/><path class="cls-1" d="M401.55,440.19a26.12,26.12,0,0,1-26.05,26.05H153.69a26.12,26.12,0,0,1-26-26.05V128.49L111.46,144l-.37.36-.41.39V440.22a43.11,43.11,0,0,0,43,43H375.53a43.11,43.11,0,0,0,43-43V410.6c-5.84-.88-11.51-.24-17-2.12Zm-26-386.25H205.3l-.84.8-.91.88-4.86,4.67L197,61.93l-9.54,9.16H375.5a26.13,26.13,0,0,1,26.05,26.05v124.8a95.72,95.72,0,0,1,17-4.16V96.92A43.11,43.11,0,0,0,375.53,53.94Z" transform="translate(-110.68 -53.94)"/><rect class="cls-1" x="86.37" y="7.43" width="17.02" height="102.33"/><rect class="cls-1" x="161.25" y="111.04" width="17.02" height="88.63" transform="translate(214.44 -68.35) rotate(90)"/><polygon class="cls-1" points="107.43 13.56 14.57 103.63 0.07 91.15 92.92 1.08 107.43 13.56"/><rect class="cls-1" x="92.92" y="1.08" width="3.36" height="1.68"/><rect class="cls-1" x="0.06" y="91.15" width="1" height="1.34"/><rect class="cls-1" x="236.94" y="120.64" width="76.3" height="18" rx="9" transform="translate(-120.72 181.46) rotate(-45.58)"/><rect class="cls-1" x="225.11" y="133.39" width="41.26" height="18" rx="9" transform="translate(59.19 -185.24) rotate(44.42)"/><rect class="cls-1" x="43.63" y="200.19" width="149.57" height="21.61" rx="8.87"/><rect class="cls-1" x="203.85" y="70.75" width="64.7" height="21.61" rx="8.87"/><rect class="cls-1" x="44.07" y="279.62" width="144.3" height="21.61" rx="8.87"/><rect class="cls-1" x="44.18" y="320.14" width="158.67" height="21.61" rx="8.87"/><rect class="cls-1" x="43.66" y="360.1" width="190.11" height="21.61" rx="8.87"/><rect class="cls-1" x="44.22" y="160.06" width="165.48" height="21.61" rx="8.87"/><rect class="cls-1" x="44.18" y="240.32" width="142.04" height="21.61" rx="8.87"/><path class="cls-1" d="M470.77,206.92a111.51,111.51,0,0,0-17-4.46,113.6,113.6,0,0,0-20.26-1.81,114.87,114.87,0,0,0-14.45.91,111.86,111.86,0,0,0-17,3.51,113.25,113.25,0,0,0,0,217.6,111.86,111.86,0,0,0,17,3.51,114.87,114.87,0,0,0,14.45.91,113.6,113.6,0,0,0,20.26-1.81,111.51,111.51,0,0,0,17-4.46,113.25,113.25,0,0,0,0-213.9Zm0,195.8a93.63,93.63,0,0,1-17,5.31,95.92,95.92,0,0,1-20.26,2.15,96.94,96.94,0,0,1-14.45-1.08,96.31,96.31,0,0,1,0-190.46,96.94,96.94,0,0,1,14.45-1.08,95.92,95.92,0,0,1,20.26,2.15,93.63,93.63,0,0,1,17,5.31,96.34,96.34,0,0,1,0,177.7Z" transform="translate(-110.68 -53.94)"/><path class="cls-1" d="M433.56,243.76a70.11,70.11,0,1,0,70.1,70.11A70.11,70.11,0,0,0,433.56,243.76Zm0,123.17a53.06,53.06,0,1,1,53.05-53.06A53.06,53.06,0,0,1,433.56,366.93Z" transform="translate(-110.68 -53.94)"/><rect class="cls-1" x="500.84" y="391.86" width="16.96" height="42.26" transform="translate(-255.54 403.98) rotate(-42.97)"/><rect class="cls-1" x="520.03" y="373.99" width="16.96" height="42.26" transform="translate(-238.21 412.26) rotate(-42.97)"/><path class="cls-1" d="M543.38,404.12l-26,24.18c-6.08,5.67-6.65,14.93-1.28,20.69l27.44,29.46c11.7,12.55,31.92,12.73,45.16.4s14.5-32.52,2.81-45.08l-27.44-29.46C558.74,398.55,549.47,398.46,543.38,404.12Zm42.68,41.19c5.11,5.49,4.57,14.32-1.23,19.72L575.24,474c-5.8,5.4-14.65,5.31-19.76-.18l-26.7-28.67a8.59,8.59,0,0,1,.75-12.12l17.68-16.47a8.6,8.6,0,0,1,12.15.11Z" transform="translate(-110.68 -53.94)"/></svg>