<?xml version="1.0" encoding="utf-8"?>
<!-- Generator: Adobe Illustrator 23.0.3, SVG Export Plug-In . SVG Version: 6.00 Build 0)  -->
<svg version="1.1" id="Layer_1" xmlns="http://www.w3.org/2000/svg" xmlns:xlink="http://www.w3.org/1999/xlink" x="0px" y="0px"
	 viewBox="0 0 435.9 448.4" style="enable-background:new 0 0 435.9 448.4;" xml:space="preserve">
<style type="text/css">
	.st0{fill:#FFFFFF;}
</style>
<image style="display:none;overflow:visible;" width="512" height="512" xlink:href="../../../Downloads/clipboard (1).png"  transform="matrix(0.75 0 0 0.75 -27.6957 28.3478)">
</image>
<g>
	<path class="st0" d="M86.8,381.9c-17.2,0-31-13.9-31-31v-215c0-17.1,13.9-31,31-31h29.2l-0.2-30.5H87.8c-34.2,0-62,27.7-62,62
		v214.1c0,34.2,27.7,62,62,62h98.5v-30.5H86.8z M261.5,74.3h-25.4v30.5h26.4c17.1,0,31,13.9,31,31v51.6h29.9v-51.1
		C323.5,102.1,295.8,74.3,261.5,74.3z"/>
	<path class="st0" d="M237,201.9H112.3c-6.6,0-12-5.4-12-12v-5c0-6.6,5.4-12,12-12H237c6.6,0,12,5.4,12,12v5
		C249,196.5,243.6,201.9,237,201.9z"/>
	<path class="st0" d="M198.5,269.1h-86.2c-6.6,0-12-5.4-12-12v-5c0-6.6,5.4-12,12-12h86.2c6.6,0,12,5.4,12,12v5
		C210.5,263.7,205.1,269.1,198.5,269.1z"/>
	<path class="st0" d="M183.3,336.9h-70.9c-6.6,0-12-5.4-12-12v-5c0-6.6,5.4-12,12-12h70.9c6.6,0,12,5.4,12,12v5
		C195.3,331.5,189.9,336.9,183.3,336.9z"/>
	<g>
		<g>
			<path class="st0" d="M234.3,45.2H115.1c-8.8,0-16,7.2-16,16v55.6c0,8.8,7.2,16,16,16h119.2c8.8,0,16-7.2,16-16V61.3
				C250.3,52.4,243.1,45.2,234.3,45.2z M219.8,103.2h-29c-5,2-10.4,3.2-16.2,3.2c-5.7,0-11.2-1.1-16.2-3.2h-28.9V74.9h18.4
				c6.7,0,12-5.4,12-12h0c0.4-7.7,6.8-13.8,14.6-13.8s14.2,6.1,14.6,13.8c0,0.1,0,0.3,0,0.4c0,0.1,0,0.3,0,0.4c0,0.1,0,0.3,0,0.4
				c0,3,1.2,5.7,3.2,7.7c2,2,4.7,3.2,7.7,3.2h19.7V103.2z"/>
			<path class="st0" d="M213.3,45.2c-6.9-14.4-21.6-24.4-38.6-24.4s-31.8,10-38.6,24.4c-2.7,5.6-4.2,11.8-4.2,18.4
				c0,3.9,0.5,7.7,1.5,11.3h14.6c6.7,0,12-5.4,12-12h0c0.4-7.7,6.8-13.8,14.6-13.8s14.2,6.1,14.6,13.8c0,0.1,0,0.3,0,0.4
				c0,0.1,0,0.3,0,0.4c0,0.1,0,0.3,0,0.4c0,3,1.2,5.7,3.2,7.7c2,2,4.7,3.2,7.7,3.2h15.8c1-3.6,1.5-7.4,1.5-11.3
				C217.4,57,215.9,50.8,213.3,45.2z"/>
			<path class="st0" d="M190.8,103.2c-5,2-10.4,3.2-16.2,3.2c-5.7,0-11.2-1.1-16.2-3.2H190.8z"/>
		</g>
		<path class="st0" d="M189.2,62.8v0.4C189.2,63.1,189.2,63,189.2,62.8L189.2,62.8z"/>
	</g>
	<path class="st0" d="M174.7,74.3"/>
	<path class="st0" d="M174.7,74.3"/>
	<circle class="st0" cx="308.5" cy="187.4" r="14.9"/>
</g>
<circle class="st0" cx="186.3" cy="397.1" r="15.2"/>
<path class="st0" d="M308.2,219.5c-48.2,0-87.2,39.1-87.2,87.3c0,20.1,6.8,38.5,18.2,53.3c7.1,9.2,16,16.9,26.1,22.6
	c12.7,7.2,27.3,11.3,43,11.3c48.2,0,87.3-39.1,87.3-87.3C395.5,258.5,356.4,219.5,308.2,219.5z M308.2,365c-7.6,0-14.9-1.5-21.5-4.1
	c-11-4.4-20.3-12-26.8-21.6c-6.3-9.3-9.9-20.5-9.9-32.6c0-32.2,26.1-58.3,58.3-58.3c32.2,0,58.3,26.1,58.3,58.3
	C366.5,338.9,340.4,365,308.2,365z"/>
<path class="st0" d="M286.7,360.9c-0.5,0.6-1,1.3-1.5,1.8l-19.9,19.9l-25.3,25.3c-5.9,5.9-15.4,5.9-21.2,0l-3.2-3.1
	c-5.9-5.9-5.9-15.4,0-21.2l23.6-23.5l20.7-20.7C266.4,349,275.7,356.6,286.7,360.9z"/>
</svg>
