<?xml version="1.0" encoding="utf-8"?>
<!-- Generator: Adobe Illustrator 27.6.1, SVG Export Plug-In . SVG Version: 6.00 Build 0)  -->
<svg version="1.1" id="Layer_1" xmlns="http://www.w3.org/2000/svg" xmlns:xlink="http://www.w3.org/1999/xlink" x="0px" y="0px"
	 viewBox="0 0 466.7 633.3" style="enable-background:new 0 0 466.7 633.3;" xml:space="preserve">
<style type="text/css">
	.st0{fill-rule:evenodd;clip-rule:evenodd;fill:#3E7CF9;}
</style>
<path class="st0" d="M66.7,166.7C66.7,74.6,141.3,0,233.3,0S400,74.6,400,166.7v100h13.3c29.3,0,53.3,24,53.3,53.3v233.3
	c0,44-36,80-80,80H80c-44,0-80-36-80-80V320c0-29.3,24-53.3,53.3-53.3h13.3V166.7z M333.3,166.7v100h-200v-100
	c0-55.3,44.7-100,100-100S333.3,111.4,333.3,166.7z M233.3,341.7c-32.2,0-58.4,26.1-58.4,58.3c0,22.6,13,43.1,33.4,52.8v80.6
	c0,13.8,11.2,25,25,25c13.8,0,25-11.2,25-25v-80.6c29.1-13.8,41.6-48.5,27.8-77.7C276.5,354.7,255.9,341.6,233.3,341.7z"/>
</svg>
