<?xml version="1.0" encoding="utf-8"?>
<!-- Generator: Adobe Illustrator 27.6.1, SVG Export Plug-In . SVG Version: 6.00 Build 0)  -->
<svg version="1.1" id="Layer_1" xmlns="http://www.w3.org/2000/svg" xmlns:xlink="http://www.w3.org/1999/xlink" x="0px" y="0px"
	 viewBox="0 0 683 683" style="enable-background:new 0 0 683 683;" xml:space="preserve">
<style type="text/css">
	.st0{fill:#EB4C3C;}
</style>
<path class="st0" d="M341.5,683C528,683,683,528,683,341.5C683,154.7,527.7,0,341.2,0C154.4,0,0,154.7,0,341.5
	C0,528,154.7,683,341.5,683z M220,466.1V332.1c0-21.8,8.4-32.8,26.4-35.5v-40.5c0-65.3,39.5-107.5,95.1-107.5s95.1,42.2,95.1,107.5
	v40.2c17.7,2.7,26.1,13.7,26.1,35.8v133.9c0,25.1-11,36.5-34.2,36.5H254.5C231,502.6,220,491.2,220,466.1z M281.2,296l120.5-0.3
	v-43.2c0-42.2-24.1-70-60.3-70c-36.2,0-60.3,27.8-60.3,70V296z"/>
</svg>
