<?xml version="1.0" encoding="utf-8"?>
<!-- Generator: Adobe Illustrator 23.0.3, SVG Export Plug-In . SVG Version: 6.00 Build 0)  -->
<svg version="1.1" id="Layer_1" xmlns="http://www.w3.org/2000/svg" xmlns:xlink="http://www.w3.org/1999/xlink" x="0px" y="0px"
	 viewBox="0 0 595.3 841.9" style="enable-background:new 0 0 595.3 841.9;" xml:space="preserve">
<style type="text/css">
	.st0{fill:#2684FE;}
</style>
<image style="display:none;overflow:visible;" width="512" height="512" xlink:href="../Downloads/manual.png"  transform="matrix(1 0 0 1 42 164.89)">
</image>
<path class="st0" d="M484.1,261l-0.7,15.7h22.9v384.3H196.7c-14.7,0-26.6-11.9-26.6-26.6v-326c0-17.5,14.2-31.7,31.8-31.7h111.8
	l10.6-15.7H201.8c-26.6,0-48.2,21.5-48.2,48.1v319.6c0,26.6,21.5,48.1,48.1,48.1h320.2V261H484.1z"/>
<path class="st0" d="M201.4,580.7c-26.3,0-47.5,21.3-47.5,47.5v0.5c0,26.6,21.5,48.1,48.1,48.1h320v-96.2H201.4z M505.6,660.9h-304
	c-17.5,0-31.7-14.2-31.7-31.7v-1.6c0-17.1,13.8-30.9,30.9-30.9h304.8V660.9z"/>
<path class="st0" d="M491.5,239.9c-4.5,2.7-13.6,7.8-26.2,12.7c-9.9,3.8-17.9,6.8-29.1,7.7c-2.7,0.2-4.9,0.3-6.4,0.3
	c1.2-4.7,2.4-11.5,2.1-19.7c-0.1-3.8-0.9-15.2-7-28.2c-7.7-16.1-19.1-24.9-24.5-29c-9.5-7.2-18.8-11-25.3-13.2
	c-61.9,95.4-123.8,190.8-185.7,286.2c9.5,3.1,23.9,8.9,38.9,20.1c9.8,7.3,27.8,21,38.4,45.4c8.1,18.6,8.9,36.3,9.4,47.7
	c0.4,8,0.1,14.7-0.3,19.3c18.7,1.5,34.3,0.4,45.4-1c18.7-2.4,48.8-6.5,77.5-27.1c4.6-3.3,8.1-6.3,10.4-8.3
	c31.6-106.9,63.1-213.8,94.7-320.7C500.6,234.1,496.5,236.9,491.5,239.9z M291.8,563.4c-0.2-4.5-0.8-10.7-2.1-18
	c-1.6-8.7-4.6-24.9-14.9-42.8c-3.1-5.4-14.4-24.2-37-39.9c-9.4-6.5-18.1-10.7-24.5-13.3c55.7-86.1,111.3-172.2,167-258.3
	c3.4,1.5,8.1,3.9,13,7.6c3,2.3,8.9,6.8,14.1,14.6c5.9,8.9,7.9,17.6,8.6,22.7c0,0,1.6,10.9-1.3,22.4
	C410.3,276.1,361.4,397.8,291.8,563.4z M396.2,543.3c-13,8.7-24.7,14.8-33.9,19c-7.9,3.7-17.7,8.1-31.3,11.7
	c-11,2.9-20.5,4.3-27.7,5c40.5-100.8,81-201.6,121.6-302.3c6.6-0.3,12.2-1,16.2-1.6c7.6-1.1,17.4-2.5,29-7c3.6-1.4,6.5-2.7,8.3-3.6
	C451,357.4,423.6,450.3,396.2,543.3z"/>
<rect x="461.7" y="341" class="st0" width="28.4" height="15.8"/>
<rect x="447.2" y="380.9" class="st0" width="42.8" height="15.8"/>
<rect x="439.8" y="420.7" class="st0" width="50.3" height="15.8"/>
<rect x="426.1" y="460.5" class="st0" width="64" height="15.8"/>
<rect x="414.8" y="500.3" class="st0" width="75.3" height="15.8"/>
<rect x="400.1" y="540.5" class="st0" width="90" height="15.8"/>
<line class="st0" x1="483.4" y1="276.7" x2="483" y2="283.7"/>
<line class="st0" x1="484.6" y1="250.5" x2="484.1" y2="261"/>
<line class="st0" x1="313.6" y1="276.7" x2="307.7" y2="285.3"/>
<line class="st0" x1="329.3" y1="253.6" x2="324.2" y2="261"/>
<rect x="199.7" y="620.5" class="st0" width="307" height="15.8"/>
<path class="st0" d="M224.9,115.6h-104c-10.6,0-19.3,8.6-19.3,19.3v92.5c0,10.6,8.6,19.3,19.3,19.3h104c10.6,0,19.3-8.6,19.3-19.3
	v-92.5C244.2,124.3,235.5,115.6,224.9,115.6z M232.3,227.7c0,4.6-3.8,8.4-8.4,8.4H122.7c-4.6,0-8.4-3.8-8.4-8.4V136
	c0-4.6,3.8-8.4,8.4-8.4h101.2c4.6,0,8.4,3.8,8.4,8.4V227.7z"/>
<path class="st0" d="M277.1,129.5l-33,19l-11.9,6.8v14.4l11.9-6.9l26.4-15.2v67l-26.4-15.2l-11.9-6.9V207l11.9,6.8l33,19
	c2.8,1.6,6.3-0.4,6.3-3.6v-96.1C283.4,129.9,279.9,127.9,277.1,129.5z"/>
</svg>
